<?xml version="1.0" encoding="UTF-8"?>
<svg id="Layer_2" data-name="Layer 2" xmlns="http://www.w3.org/2000/svg" viewBox="0 0 88.23 88.23">
  <defs>
    <style>
      .cls-1 {
        fill: #e7c35f;
        fill-rule: evenodd;
      }

      .cls-2 {
        fill: #1d1d1b;
      }
    </style>
  </defs>
  <g id="Layer_1-2" data-name="Layer 1">
    <circle class="cls-2" cx="44.11" cy="44.11" r="44.11" transform="translate(-17.76 52.06) rotate(-52.32)"/>
    <g>
      <path class="cls-1" d="m39.94,34.04c0-1.77,1.4-3.19,3.32-3.19,1.46,0,2.95,1.38,2.95,2.83,0,.89-.1,1.9-.86,2.46-.99-.23-2.1-1.3-4.55,0-.24-.36-.37-.39-.57-.91-.1-.25-.29-.92-.29-1.18h0Zm25.52,41.52c.53-.12,1.01-.58,1.01-1.23v-14.87c0-2.53-2.02-4.05-4.21-4.27-1.01-.1-1.66.45-2.42.46-.57-2.44-3.84-3.6-6.06-2.5-.65.32-.82.58-1.31.91l-.51-.59c1.29-.7,2.56-1.35,3.73-2.21,1.54-1.13,2.92-2.39,4.09-3.9.91-1.16,1.71-2.33,2.36-3.66.5-1,.8-1.73,1.22-2.84.35-.93.59-2.09.8-3.13.92-4.63-.08-9.59-2.06-13.57-1.3-2.6-1.76-2.14-1.29-3.18.64-1.42.61-3.15-.19-4.43-2.55-4.03-8.75-2.32-8.75,2.24,0,1.91.96,3.65,2.7,4.42,1.32.58,2.79.61,4.06,0,3.47,5.18,4.44,12.01,1.91,18.01-.8,1.9-1.83,3.45-3.07,5.04-2.34,2.99-6.26,5.2-10.02,6.07v-6.51c1.05-.55,2.22-1,3.16-1.76.93-.75,1.77-1.49,2.48-2.44,2.76-3.69,3.48-8.74,1.41-13.05-1.21-2.52-3.58-5.03-6.2-6.08-4.25-1.71-8.49-1.41-12.27,1.09-2.55,1.69-4.48,4.45-5.15,7.5-.79,3.62-.13,7.34,2.1,10.3,1.66,2.19,3.25,3.17,5.63,4.32v17.81c-.07-.08-.13-.14-.22-.27l-.69-1.15c-1.08-1.75-1.98-2.81-4.18-3.08-.58-.07-1.49.14-1.92.32-1.81.75-2.94,2.19-2.94,4.43,0,1.21.71,2.4,1.15,3.28.47.94,3.67,7.65,4.06,8.1.2.23.52.38.85.42h.35c.77-.09,1.41-.85.51-2.62-.7-1.39-4.34-8.18-4.34-9.17,0-2.12,1.89-2.71,3.25-1.78.71.49,3.49,5.49,4.24,6.69.58.93,2.01,1.11,2.39-.19.17-.58.07-1.38.07-2.02v-25.68c0-1.67.25-2.7,2.09-2.7.62,0,1.29.61,1.52,1.06.3.6.2,1.53.2,2.38v20.76c0,1.01-.15,1.62.54,2.05.63.39,1.39.22,1.76-.37.37-.6.16-3.97.16-5,0-1.99-.23-3.69,2.21-3.69.77,0,1.49.79,1.59,1.48.33,2.49-1.03,8.22,1.36,8.22,1.09,0,1.24-.91,1.23-1.84-.01-1.61-.16-4.81,0-6.26.25-2.16,3.54-2.14,3.79,0,.17,1.45.02,4.76,0,6.38-.02,2.31,1.66,1.97,2.18,1.44.23-.23.33-.67.37-.98.26-1.85-.94-5.99,1.87-5.99,1.74,0,1.97,1.44,1.97,3.19v13.03c-.01.99.42,1.47.92,1.59h.52Zm-27.98-42.02c0-2.93,3.19-5.52,5.86-5.26,4.59.46,6.49,4.86,4.87,8.13-.35.71-.76,1.09-1.15,1.67.56,1.17.37,3.48.37,4.91,1.52-.35,3.63-2.8,4.45-4.15,1.04-1.72,1.6-4.49,1.05-7-.55-2.55-1.56-3.78-3.19-5.41-2.71-2.68-7.51-3.26-11.11-1.46-6.87,3.44-7.13,12.55-2.15,16.56.52.42,1.41,1.17,2.11,1.33,0-.93-.03-1.9,0-2.83.02-.96.32-1.45.5-2.21-1.23-.82-1.6-2.7-1.6-4.3h0Zm19.17-12.41c-2.93,0-3.03-4.3,0-4.3,2.76,0,2.76,4.3,0,4.3Z"/>
      <path class="cls-1" d="m29.74,51.12c-2.99,0-2.99-4.3,0-4.3,2.71,0,2.77,4.3,0,4.3h0Zm10.94-38.45c-1.42.13-2.99.62-3.34.72-1.43.42-2.39.79-3.63,1.41l-2.37,1.32c-1.27.81-2.43,1.86-3.48,2.91-1.8,1.8-2.97,3.55-4.15,5.93-.97,1.96-1.96,5.31-1.96,8.23,0,4.65.51,6.89,2.46,10.81.45.91,1.02,1.6,1.48,2.46-1.99,2.97.21,7.25,3.93,7.25,2.62,0,4.73-2.18,4.73-4.67,0-1.38-.54-2.51-1.31-3.29-.41-.42-.78-.76-1.32-1.01-2.04-.94-2.87-.3-4.18,0-.09-.35-.43-.77-.62-1.1-1.11-1.85-2-4.15-2.36-6.36-1.06-6.49.86-12.23,5.47-16.84,2.49-2.5,5.99-4.35,9.62-5,1.78-.32,3.49.1,3.49-1.67,0-.7-.53-1.01-1.27-1.11h-1.18Z"/>
      <path class="cls-1" d="m46.2,14.26c0,1.53,2.46,2.19,2.46-.25,0-1.14-2.46-1.43-2.46.25Z"/>
    </g>
  </g>
</svg>