<?xml version="1.0" encoding="UTF-8"?>
<svg id="Layer_2" data-name="Layer 2" xmlns="http://www.w3.org/2000/svg" viewBox="0 0 88.23 88.23">
  <defs>
    <style>
      .cls-1 {
        fill: #e3e8a2;
        fill-rule: evenodd;
      }

      .cls-2 {
        fill: #1d1d1b;
      }
    </style>
  </defs>
  <g id="Layer_1-2" data-name="Layer 1">
    <circle class="cls-2" cx="44.11" cy="44.11" r="44.11" transform="translate(-18.27 44.11) rotate(-45)"/>
    <g>
      <path class="cls-1" d="m30.1,63.77c.94-.02,2.93-.86,3.43.26.29.65-.04,1.27.34,1.95.42.75.78.47,1.2,1.09-.93-.22-4.19-2.21-4.75-2.89-.3-.37-.1-.19-.22-.42h0Zm12.98-23.16c0,2.97,3.08,3.71,4.72,5.34.31.31.2-.06.25.52-2.34.55-8.78-.05-8.78,3.05,0,1.89,1.67,2.66,2.32,3.4.24.27.31.41.57.7.67.75,1.43,1.78,1.43,2.89,0,.46-2.06,2.53-4.55-.42-.66-.78-.94-1.67-1.49-2.58-.54-.91-.91-1.75-1.47-2.6-2.5-3.77-3.24-2.05-4.68-3.59-1.68-1.8-.89-3.98-1.93-6.34-.25-.56-.35-.85-.66-1.37-.21-.35-.65-1.06-.74-1.42,1.18-1.77,3.97-3.58,5.78-4.66,2.03-1.21,6.07-2.09,8.48-2.09,1.39,0,3.13.25,4.3.53.84.2,1.14.08,1.35,1.07.56,2.6.82,4.77-1.96,5.53-1.13.31-2.93.65-2.93,2.03h0Zm6.87-7.51c0,.86.25,1.59.25,2.55,0,4.63-4.09,4.61-5.35,5.22.16.3.27.66.5.9,1.17,1.25,4.59,2.77,4.59,4.44,0,.98-.5,1.55-1.35,1.96-1.03.5-3.99.43-5.34.64-.97.15-1.52.34-2.22.71.22.93,1.81,1.91,2.68,3.05,1.81,2.39,3.03,5.39-.69,6.69-2.5.87-4.78-.8-5.89-2.66-.19-.32-.28-.47-.48-.8-.66-1.09-1.12-2.19-1.78-3.31-.95-1.61-1.26-2.18-2.63-2.58-4.48-1.31-3.52-6.32-4.56-8.42-.46-.93-.51-1.39-1.02-1.53-.3,1.11-4.21,5.91-2.47,14.05.45,2.1,1.34,4.19,2.45,5.95.72,1.14,1.5,1.94,1.81,2.39.47-.23,2.83-.76,3.56-.76,3.81,0,3.17,2.48,3.61,3.39.31.64,1.36.29,1.36,2.84,5.14,1.2,8.97,1.17,13.87-1.27l2.04-1.15c-.53-2.27-.18-.96.19-3.13.27-1.57-1.08-3.66-1.08-5.27,0-1.41,1.33-1.91,2.07-2.64,2.36-2.34.21-5.12,2.22-7.2,1.07-1.12,2.5-1.24,4.11-1.24-.04-1.61-1.65-4.76-2.6-6.19-.42-.64-.76-1.12-1.25-1.67-2.34-2.63-3.41-3.32-6.59-5h0Zm-28,16.04c0,4.57.34,5.83,1.96,9.75.3.73,1.41,2.48,1.86,3.11.74,1.05,1.42,1.73,2.32,2.64,1.69,1.69,3.55,2.98,5.86,4.06,10.73,5,21.47-1.89,21.47-3.39,0-.63-.61-.8-1.02-1.02,1.44-3-.51-5.57-.51-7.25,0-.48,1.08-.67,2.02-1.93.63-.84,1.01-1.66,1.15-2.93.11-1.09-.06-2.97.45-3.62.5-.65,2.11-.82,3.26-.82l.12,2.04c.02,1.76,1.98,1.81,1.93-.26-.2-7.58-5.04-15.04-12.01-18.04-7.05-3.03-13.8-2.35-20.2,1.87-.92.61-1.91,1.47-2.7,2.26-3.25,3.25-5.95,8.54-5.95,13.52Z"/>
      <path class="cls-1" d="m67.9,26.36h-13.24c-5.6,0-6.73-4.44-5.31-7.09.65-1.2,1.62-1.97,2.94-2.41,2.12-.71-.41-2.08,2.91-5.37,1.57-1.56,4.29-2,6.47-.92.94.47,1.17.72,1.88,1.43,2.01,2.02,1.01,4.09,1.93,4.56,1.18.62,5.49-.99,7.47,2.33,1.35,2.27.78,4.92-.84,6.19-1.16.91-2.14,1.27-4.21,1.27h0Zm-14.51,1.78h15.78c1.81,0,3.42-.94,4.36-1.87,2.13-2.12,2.68-5.55,1.19-8-.94-1.55-2.17-2.61-3.97-3.15-1.31-.39-2.16-.04-3.5-.19-.7-.08-.46-.4-.65-1.13-.76-2.94-3.86-5.62-6.98-5.62s-5.43,1.1-6.98,3.46c-1.18,1.8-1.06,3.15-1.23,3.47-.15.29-.71.34-1.53.89-5.39,3.59-2.71,12.16,3.51,12.16Z"/>
      <path class="cls-1" d="m66.12,69.25c-4.23,0-7.76-3.4-7.76-7.76,0-7.26,9.47-10.59,14-4.33,1.55,2.14,1.75,4.97.71,7.46-1.12,2.69-4.09,4.63-6.95,4.63h0Zm-.76,1.78c3.26,0,5.27-.63,7.41-2.77,1.97-1.97,2.77-3.99,2.77-7.16,0-7.2-9.41-12.62-16.2-6.4-1.03.94-2.19,3.03-2.54,4.46-.52,2.14-.35,4.06.39,5.9.62,1.54,1.75,3.07,3,4,1.17.88,3.21,1.96,5.17,1.96Z"/>
      <path class="cls-1" d="m12.66,49.01c0,9.06,2.1,13.93,7.05,20.31.31.4.56.56.87.91.33.38.43.79,1.12.79.82,0,1.42-.85.29-1.94-3.82-3.68-6.67-10.25-7.3-15.74-.87-7.52,1.15-14.35,5.52-20.21l2.67-3.06c.44-.4.86-.56.86-1.18s-.3-.89-.89-.89c-.73,0-1.67,1.23-2.13,1.69-1.09,1.08-2.6,3.02-3.41,4.35-2.68,4.38-4.64,9.61-4.64,14.96Z"/>
      <path class="cls-1" d="m66.12,66.57c-1.66,0-.51-1.83-.51-1.91v-5.47h.76v5.09c0,.75.51.77.51,1.4,0,.51-.28.89-.76.89h0Zm-.36-10.05h.49c.09.15.13.13.13.38v.38h-.76l.15-.76h0Zm-2.44,9.29c0,1.54,1.54,2.67,2.67,2.67,1.45,0,2.8-1.35,2.8-2.8,0-1.19-.52-.3-.51-2.93,0-1.25.16-5.87-.17-6.7-.82-2.06-3.43-1.71-4.11-.13-.33.76-.17,5.62-.17,6.83,0,2.91-.51,1.17-.51,3.05Z"/>
      <path class="cls-1" d="m63.32,31.06c0,1,.41,1.05,1.31,2.25,1.54,2.06,2.65,4.1,3.64,6.55,1.43,3.57,1.43,4.87,1.89,8.29.17,1.29-.42,2.64,1.18,2.64,1.17,0,.64-2.38.63-2.67-.07-2.84-.98-6.49-1.98-8.97-1.22-3.03-2.67-5.46-4.67-7.93-.49-.62-.43-.79-1.37-.79-.3,0-.64.34-.64.64Z"/>
      <path class="cls-1" d="m21.45,19.48c-3.31,0-3.35-5.09,0-5.09s3.26,5.09,0,5.09h0Zm-4.33-3.05v1.02c0,1.79,2.03,3.82,3.82,3.82h1.02c1.79,0,3.82-2.03,3.82-3.82v-1.02c0-1.79-2.03-3.82-3.82-3.82h-1.02c-1.79,0-3.82,2.03-3.82,3.82Z"/>
      <path class="cls-1" d="m31.25,23.05c0,1.83,2.33.53,3.21.28,5.09-1.42,9.44-1.08,9.56-1.12,1.19-.37.81-1.83-.3-1.83-4.12,0-6.62.09-10.55,1.42-.66.22-1.93.42-1.93,1.26Z"/>
      <path class="cls-1" d="m27.05,23.43c.49,0,.89-.4.89-.89,0-.7-.78-1.22-1.18-1.62-1.68-1.7-2.27-.14-2.04.5.11.31,1.58,2.02,2.32,2.02Z"/>
      <path class="cls-1" d="m14.96,11.21c0,.87.63,1.19,1.18,1.75.45.46,1.08,1.21,1.81.48,1.07-1.07-1.62-2.99-2.1-2.99-.54,0-.89.51-.89.76Z"/>
      <path class="cls-1" d="m14.96,22.54c0,.49.4.89.89.89.54,0,3.13-1.96,2.1-2.99-1.07-1.07-2.99,1.62-2.99,2.1Z"/>
      <path class="cls-1" d="m27.94,11.34c0-.49-.4-.89-.89-.89s-3.17,1.92-2.1,2.99c1.01,1.01,2.99-1.53,2.99-2.1Z"/>
      <path class="cls-1" d="m20.56,9.05c0,1.72-.3,2.93.89,2.93s.89-1.21.89-2.93c0-1.22-1.78-1.22-1.78,0Z"/>
      <path class="cls-1" d="m26.41,16.94c0,1.19,1.21.89,2.93.89,1.22,0,1.22-1.78,0-1.78-1.72,0-2.93-.3-2.93.89Z"/>
      <path class="cls-1" d="m12.66,16.94c0,1.19,1.21.89,2.93.89,1.22,0,1.22-1.78,0-1.78-1.72,0-2.93-.3-2.93.89Z"/>
      <path class="cls-1" d="m20.56,22.79c0,1.72-.3,2.93.89,2.93s.89-1.21.89-2.93c0-1.22-1.78-1.22-1.78,0Z"/>
    </g>
  </g>
</svg>