<?xml version="1.0" encoding="UTF-8"?>
<svg id="Layer_2" data-name="Layer 2" xmlns="http://www.w3.org/2000/svg" viewBox="0 0 88.23 88.23">
  <defs>
    <style>
      .cls-1 {
        fill: #edd2d6;
        fill-rule: evenodd;
      }

      .cls-2 {
        fill: #1d1d1b;
      }
    </style>
  </defs>
  <g id="Layer_1-2" data-name="Layer 1">
    <circle class="cls-2" cx="44.11" cy="44.11" r="44.11" transform="translate(-18.27 44.11) rotate(-45)"/>
    <g>
      <path class="cls-1" d="m58.15,61.66c0-1.02-.01-.98.22-1.97,1.26.84.95,1.29,1.04,1.93.15,1-.25.84-.6,2.35-.13-.15-.15-.17-.26-.4-.07-.16-.15-.4-.2-.57-.11-.39-.2-.8-.2-1.33h0Zm-.93-45.62c-2.03.19-3.78,1.19-5.54,2.52-.24.18-.29.26-.52.47l-1.59,1.48c-.35.35-.72.67-1.02,1.06-1.3,1.69-1.63,1.31-2.26,3.88l-2.13,8.07c-.15.53-.37,1.11-.37,1.72,0,1.41,1.25,2.74,2.96,2.74,1.01,0,1.63-.92,2.55-1.84.72-.72,1.64-1.48.89-3.03-.67-1.39-.51-.54.54-3l1.39-3.1c1.38.73,2.83,1.53,4.02,2.55l1.16,1.04c.93.94,3.49,3.96,3.59,5.18-.39,0-1.51.21-1.75.33-.28-.41-.53-.71-.95-1.02-1.83-1.34-2.76-.26-3.95.94-.96.96-1.56,1.3-1.56,2.82,0,1.28,1.2,2.3,2.52,2.3h7.57c0,.43.08.89.12,1.42.11,1.38.16,1.53,0,2.99-.05.47-.13,1.14-.13,1.52h-7.79c-.48,0-.78.16-1.1.33-.35-.52-1.29-1.24-1.95-1.89-1.6-1.6-2.1-2.45-4-.55l-2.91,2.91c-.51.51-1.12.86-1.12,1.84,0,1.06.98,1.7,1.56,2.28.5.5,1.44,1.55,1.95,1.89-.13.24-.33.54-.33.88v11.84c0,1.59,2.84,3.17,4.09,3.8,2.56,1.28,4.63,1.74,6.29,1.79h.7c2.65-.09,4.05-1.21,4.49-1.21l1.5.8c.54.23,1.11.36,1.68.41h.82c2.79-.2,5.45-2.41,5.53-5.49v-.3c-.03-1.16-.43-2.43-1.32-3.76.1-.12,0,.04.14-.19.27-.43.64-1.51.76-1.98.89-3.5.26-5.93-1.38-9.2-.7-1.4-2.22-4.2-4.02-4.2h-1.86c0-.77.11-1.07.11-1.86v-2.19c0-.79-.11-1.1-.11-1.86,1.91,0,2.84.26,4.01-1.25.3-.38,1.26-1.61,1.31-2.07.07-.64-.85-1.54-1.71-.3-1.63,2.35-.83,1.87-5.26,1.87v-2.3c2.46-.57,1.87.1,2.92-3.01.2-.59.44-.73.8-1.18l3.63-4.37c.92,3.93-1.09,5.77-.44,6.68.3.42,1.14.66,1.55-.41.75-1.93,1.13-4.42.59-6.55-.87-3.42-.77-.49,0-3.93.14-.64.24-1.29.26-1.92v-.69c-.06-1.42-.52-2.76-1.62-3.84-1.14-1.13-2.34-1.69-3.67-1.84h-1.64c-.53.05-1.09.15-1.68.28-2.84.66-.44.83-3.42,0-.54-.15-1.06-.24-1.56-.29h-1.38Zm3.9,45.07c.48.04.7.22,1.21.22.27,0,1.37-.88,2.52-.88,1.92,0,3.77,2.14,4.84,3.49,2,2.52-.02,6.6-3.31,6.6-1.82,0-2.73-1.03-3.7-2-1.12-1.12-2.22-1.74-2.22-3.7,0-.74.28-1.38.56-1.86.6-1.03.1-.71.1-1.87h0Zm-4.72,0c0-.28.07-.11.11-.55-.8.54-2.66,1.86-3.62,2.08,0,1.44.35.99,2.4,1.76.34.13.56.27.56.76,0,1.54-1.68.66-2.89.26-1.86-.62-1.39-.35-2.01-3.47-.16-.8-.29-1.53-.47-2.28h-1.75v6.36c0,.74.2.79.62,1.13,1.09.89,1.68,1.29,3.1,1.94,2.69,1.23,5.94,2.1,8.89.54-.45-.68-2.09-1.96-3.24-3.55-.96-1.33-1.69-2.77-1.69-5h0Zm3.18-2.74c.54-.01.71-.22,2.41-.22.99,0,1.29.39,1.97.55v.22c-1.35.03-1.31.75-2.29.54-.83-.17-1.26.17-2.1-1.09h0Zm-8.77-.44h-2.08c0-2.34-.34-3.51.99-3.51.22,0,2.3,1.85,2.3,2.52,0,.73-.41.99-1.21.99h0Zm1.64,3.07c.59-.14,2.17-1.2,2.7-1.58,1.64-1.19,2.11-1.71,3.36-3.11.66-.74,2.32-3.04,2.39-3.86-.66,0-.98-.22-1.64-.22-.34.64-.7,1.06-1.37,1.37-.25.12-.42.13-.62.26-.21.14-3.38,3.29-3.53,3.6-.24.49-.46,1.63-1.61,1.9.11.22.32,1.31.33,1.64h0Zm7.13-10.75c0,.44,1.37.53,2.18.67.73.13,1.58.29,2.38.47,1.01.22.96.69,1.26,1.59.15.46.64,1.7.64,2.21,0,.38-1.15,1.81-1.91-.5-.18-.54-.39-1.18-.51-1.69-.55,0-.49-.1-.99-.11-.13.57-.63,1.3-.91,1.83-.34.63-.73,1.07-1.06,1.68,1.47,0,1.98,0,3.11.4.8.28,1.64.81,2.24,1.26,1.3.98.99.9,1.85,1.66l.93.82c.29.3.52.57.85.79,1.5-3.12.63-6.03-.58-8.85-.32-.75-.7-1.4-1.13-2.05-.24-.35-1.06-1.6-1.47-1.6h-6.91v1.43h0Zm-4.61-1.43h2.96v1.97c0,.44-.49,1.32-.88,1.32-.81,0-1.43-.94-1.89-1.4-.26-.26-.65-.53-.77-.89-.12-.36.12-1.01.57-1.01h0Zm-2.3.55c0,1.19.28,1.55,1.07,2.33.37.37,1.24,1.39,1.67,1.51l-2.17,2.22c-.35-.5-1.14-1.19-1.59-1.64-2.2-2.21-2.36-.34-3.35-1.36-.62-.64-2.36-2.28-2.65-2.72l3.97-4.03,2.36,2.19c.28.28.48.53.79.74-.03.34-.11.39-.11.77h0Zm3.84-13.16c1.1,0,1.52,1.64,1.97,1.64,1.03,0,1.82-.42,2.74-.44v1.97h-6.25c-.09,0-1.32-.41-.03-1.67.2-.2,1.44-1.51,1.56-1.51h0Zm-8.55-3.95c0,.69.77,1.24.77,1.97,0,.12-1.75,1.75-1.97,2.08-1.91-.45-1.11-1.7-.55-3.84.12-.44.21-.88.33-1.32.11-.42.29-.84.33-1.31.5.24,1.31.28,1.86.55-.19.37-.77,1.4-.77,1.86h0Zm11.4-4.93c0,2.34,2.14,1.24,2.81,1.39.22.05.74.44,1.25.48-.38.57-2.1,2.38-2.63,2.74l-2.11-2.39c-.44-.43-.77-.68-1.21-1.1l-1.29-1.01c.32-.48.91-.96,1.34-1.4.23-.23.41-.44.66-.65.35-.3.54-.5.84-.58.05.62.28.71.4,1.15.09.35-.07.85-.07,1.37h0Zm1.32-2.85l2.63.33c.07.88.33,1.69.33,2.63-.7-.06-.9-.55-1.32-.55-.51,0-.73.18-1.21.22,0-1.83.7-.09-.44-2.63h0Zm-6.03,1.97c-.41-.28-.76-.42-1.21-.66.32-.48,1.31-1.41,1.82-1.8l2.76-2.61c2.23-1.99,5.91-4.13,8.93-3.61,1.22.21,1.65.54,2.37,1.25,1.91,1.9,1.09,5.3.06,7.36-1.05,2.1-1.7,2.65-2.98,4.26-.63.79-1.87,1.75-2.17,2.65-.2.61-.45,1.35-.59,1.94-.55,0-.49.1-.99.11-.17-.73-.75-1.33-.88-1.86,1.29-1.93,3.62-2.4,3.62-5.7,0-.6-.42-3.99-.58-4.24-.33-.49-1.34-.33-1.97-.44-2.74-.47-4.09-.54-5.97,1.2-.64.6-1.58,1.74-2.22,2.17h0Zm-5.15,2.3c-.59-.01-1.62-.41-2.19-.55.16-.34.44-1.53.55-1.97.66-2.65.57-1.7,1.86-3.4,1.17-1.53,3.88-3.8,5.85-4.68,1.1-.5,3.67-.67,4.13-.03-.48.11-2.49,1.68-2.99,2.16-.48.47-.88.78-1.37,1.26l-4,3.78c-.57.49-.68.9-1.03,1.6l-.8,1.83Z"/>
      <path class="cls-1" d="m19.99,37.32c.73,0,1.27-.13,1.77-.31.94-.34.82-.46,1.3-.78.34.25.09.19.46.42.25.16.33.14.68.2l6.4,1.05c.59.25-.02.5.6,1.26.63.77,1.24,1.12,2.6,1.12-1.42,2.13-4.17-.66-4.17-.66-.87-.5-6.24-.13-7.68-.21-.79-.04-1.63-1.46-1.97-2.09h0Zm13.49,1.32c.78,0,1.2-.59,1.62-1.01l2.58-2.58c.33-.33,1.79-1.62.41-2.55-.29.19-5.34,5.07-5.48,5.59.15.22.54.55.88.55h0Zm-6.14-2.96c.72,0,1.57.21,2.21.31,2.7.45,1.93.64,3.41-.83l2.47-2.47c1.28-1.28,1.06-.44.58-3.37-.1-.58-.32-1.52-.33-2.08-2.9,1.53-4.92,3.22-6.82,5.79-.4.54-1.36,1.98-1.52,2.65h0Zm0-8.33c-2.23,0-.57-.7-2.61.24-.77.35-2.17.53-2.65-.13.58-.15.95-.82,1.21-1.32,1.41,0,2.15-.51,2.63-1.43.45-.87.13-1.19.5-1.58.22-.22.88-.46,1.03-1.05h.22c.18.78.4,1.5.03,2.45-.14.36-.35.6-.46.86-.29.68.34.94.1,1.95h0Zm9.98-7.35c.54.13,1.18.76,1.63,1.11.37.29.55.31.57,1.19v6.91c.11.83,1.51,1.33,1.58,3,.03.73-.21,1.17-.71,1.51,0-1.35-.75-2.85-2.41-2.85-.01-.5-.22-1.5-.32-1.98l-.68-4.03c-.12-.74-.06-1.48-.75-1.66.12-.43.14-.24.39-.6.52-.74.71-1.58.71-2.58h0Zm-13.05,2.52c0-1.13,1.18-.56,1.69-1.17.25-.3.3-.65.16-1-.15-.38-1.65-1.77-2.13-2.05-1.59-.95-3.61-.72-4.9.57-.36.36-.65.61-.88,1.09-.21.44-.41.97-.41,1.57,0,1.55.06,1.88,1,3.06,2.75,3.46,2.98.17,3.02.09.38-.92,1.51-.18,1.68-.18,1.48,0,.77-1.77.77-1.97h0Zm-8.22-.77c0,1.74.56,2.71,1.32,3.84-.38.44-.75,1.62-.9,2.17-1.16,4.14.56,8.55,2.92,11.71,1.47,1.96,1.9,1.69,4.34,1.69,0,.77-.11,1.07-.11,1.86,0,1.98-.33,3.18.99,3.18.42,0,.63-.39.66-.76l.1-2.86c.04-.53.12-.99.12-1.42h3.18c.23,0,.93.72,1.57,1.06,2.11,1.13,4.26.54,5.27-1.35,1.11-2.07-.7-.53,2.02-3.25.93-.93,1.36-1.62,2.09-1.75,3.2-.55,4.28-3.88,1.98-6.65-.53-.64-.43-.57-.42-1.66,0-.69,0-1.39,0-2.08.71-.06,1.38-.23,2.19-.22.9.01,1.65,0,1.65-.88,0-.8-.68-.93-1.53-.88-.65.04-1.65.22-2.31.22,0-2.64.31-2.9-1.66-4.37-.82-.61-1.46-1.03-2.43-1.51-2.63-1.31-4.15-1.79-7.31-1.79-2.17,0-1.7,1.75-.77,1.75,2.52,0,2.72-.24,5.5.75,2.25.8.7,3.86-.24,3.86-.45,0-1.86-.81-1.86.66,0,1.01,1.46.9,2.55,1.4.37.17.4.5.41,1.01l-1.57.84c-2.27,1.25-4.94,3.7-6.41,5.87-.47.7-1.58,2.34-1.77,3.16-.38-.09-.8-.05-1.01-.31-.12-.14-.27-.8-.35-1.07-.84-2.97-2.04-1.24-2.04-.92,0,.57.22.63.22,1.1,0,.88-1.2,1.43-2.3,1.43-1.18,0-1.46-.88-1.74-1.77-.72-2.29-.87-4.66.21-6.9.29.19.48.42.74.69,1.4,1.42,3.24,2.44,5.31,1.85.46-.13.75-.35,1.07-.46.45-.15,1.72.56,2.78-.4.62-.56.63-1.14.63-1.9,0-1.07-.25-.52.19-1.57,1.25-2.97-.75-4.87-2.35-6.47-1.66-1.66-2.51-2.6-5.29-2.6-2.96,0-5.59,2.73-5.59,5.7Z"/>
      <path class="cls-1" d="m17.8,66.7c0-1.71.28-2.43,1.51-3.65.44-.43,1.88-2.05,2.33-2.17.23.16.96,1.05,1.19,1.33l1.14,1.5c1.48,2.19,2.74,5.36-.63,6.54-2.96,1.03-5.53-1.35-5.53-3.56h0Zm5.81-6.25c.52.78,1.25,1.46,2.1,2.83.47.75,1.38,2.42,1.4,3.53.94-.69.78-2.67.1-3.83-.6-1.03-.1-.71-.1-1.87-.48.04-.7.22-1.21.22-.22,0-.8-.42-1.11-.54-.39-.15-.78-.24-1.19-.34h0Zm5.48-5.04c.41.03,1.01.27,1.46.4.58.17.89.26,1.61.26,0,1.26.57,2.06.66,3.07-.39-.1-.24-.1-.54-.34-.2-.16-.34-.27-.53-.45-.36-.34-.62-.51-.99-.88-.29-.29-1.57-1.66-1.67-2.06Zm4.82.99c0-.82.08-.92.52-1.35.5-.49,2.4-2.58,2.88-2.71,0,1.22-.47,2.03-.88,2.85-.28.57-.2.82-.92.95-.5.09-1.26.09-1.61.26h0Zm-3.62-2.52c0-.54.12-1.2.22-1.64l-2.67-1.28c-1.73-.87-2.59-1.66-3.39-.94-.24.21-.29.26-.53.45-1.67,1.35-6.12,5.55-6.12,7.14,0,1.38.21,2.56.77,3.73.48-.32.96-.91,1.4-1.34,1.63-1.63,1.12-1.09,2.21-1.11.14,0,.29-.06.56-.06,3.55,0,2.61.9,3.73.68,3.27-.64,2.23,1.71,2.31,2.6.03.3.21.55.33.87,1.5,4.07-1.53,5.69-2.21,6.7.7.37,2.99,1.06,3.95.78.64-.19,1.16-.54,1.64-.88l1.34-1.07c.96-.93,4.69-4.5,4.69-5.18,0-1.09-2.17-4.44-2.41-5.48-.67,0-1.17.17-1.75.22,1.04,4.46,2.17,3.52-.14,6.11-.26.29-.52.6-.75.89-1.21,1.52-1.85.09-1.8-.28.04-.3.45-.76.65-.98l1.2-1.43c.24-.27.19-.09.3-.47-.8-.42-1.54-.91-2.26-1.47l-1.94-1.68c-.73-.73-2.97-3.41-3.15-4.2-.52.04-1.83,1.28-2.28,1.67-1.17,1.04-1.67-.27-1.67-.47,0-.65,3.23-3.07,3.51-3.07.56,0,3.56,1.19,4.28,1.21h0Zm1.64.44c1.12,0,1.15-.33,2.27-1.45.48-.48,1.46-1.35,1.78-1.84-1.26,0-2.02.39-2.92.8-.94.43-.85.4-.94.93-.06.39-.19,1.12-.19,1.56h0Zm-15.9,3.51c0,1.28.37,2.74.8,3.81.14.36.26.72.52,1.02-3.53,5.28.81,9.54,4.28,9.54,2.79,0,3.68-1.21,3.84-1.21.64,0,1.86,1.21,5.26,1.21,1.65,0,3.59-1.94,4.64-2.82.26-.22.34-.24.6-.5l1.53-1.65c.65-.67,2.06-2.21,2.44-2.93l2.1.31c1.06.11,3.49.56,3.49-.75,0-.92-.72-.89-1.64-.88-.9,0-1.54-.03-2.37-.15-1.61-.23-1.26-.19-1.58-.94l-1.64-3.4c-1.14-2.31-.82-1.16.09-3.41.7-1.72.95-3.03-.25-4.55-1.48-1.87-3.73-1.09-5.46-.39-1.76.72-.64.91-2.36.09-.34-.16-.61-.25-.92-.4-3.85-1.9-4.15-2.71-6.76-.52-2.02,1.7-6.61,5.83-6.61,8.52Z"/>
    </g>
  </g>
</svg>