<?xml version="1.0" encoding="UTF-8"?>
<svg id="Layer_2" data-name="Layer 2" xmlns="http://www.w3.org/2000/svg" viewBox="0 0 88.23 88.23">
  <defs>
    <style>
      .cls-1 {
        fill: #e3cc98;
      }

      .cls-2 {
        fill: #1d1d1b;
        fill-rule: evenodd;
      }
    </style>
  </defs>
  <g id="Layer_1-2" data-name="Layer 1">
    <circle class="cls-1" cx="44.11" cy="44.11" r="44.11"/>
    <g>
      <path class="cls-2" d="m63.68,40c-.86-.2-.83-.66-1.99-.66-.65,0-2.05,3.67-2.39,4.35-.24.48-.58,1.09-.7,1.62-.33-.17-1.25-.71-1.55-.77.14-.6.36-.95.63-1.47l1.32-2.88c.27-.54.89-1.55.43-2.12l-.61-.27c-.73,0-.86.6-1.11,1.1l-1.85,3.9c-.15.36-.28.47-.36.85-.67-.06-1.06-.41-1.66-.55l2.65-5.86c0-.76-1-.97-1.88-1.44l1.94-3.36c1.34-2.26,1.97-3.41,5.02-2.05l2.96,1.46c.45.34.78.75.97,1.35.21.67.12,1.2-.07,1.82l-1.76,4.98h0Zm-35.37-10.17c2.1,0,2.28.73,3.32,2.54.65,1.12,1.38,2.28,1.98,3.43-2.13,1.13-2.55.48-.59,4.35l1.03,2.18c.12.28.19.51.33.77-.37.09-1.33.49-1.66.66l-1.4-3.13c-.65-1.28-.99-2.84-1.92-2.84-1.47,0-.46,1.86-.18,2.39l1.95,4.35-1.55.77-2.1-4.64c-.54-1.08-.49-1.33-1.33-1.33-.5,0-1.1.53-1.66.66-.03-.33-.43-1.34-.55-1.66-.2-.51-.4-1.06-.6-1.62-.43-1.24-1.05-2.37-.68-3.53.17-.53.49-.97.91-1.3.55-.44,4.06-2.06,4.68-2.06h0Zm33.27-3.09c0,3.75,5.42,3.38,5.42.33v-.66c0-1.32-1.47-2.5-2.84-2.39-1.49.13-2.58,1.29-2.58,2.72h0Zm-37.58,2.76c-1.38,0-2.76-1.09-2.76-2.43,0-.99-.01-1.58.85-2.35,1.76-1.57,4.56-.32,4.56,2.02,0,1.49-1.2,2.76-2.65,2.76h0Zm17.35-7.3c0-2.67,3.21-3.59,4.73-1.97,1.56,1.67.75,4.62-2.19,4.62-1.37,0-2.54-1.41-2.54-2.65h0Zm-1.66-.44c0,1.64.28,2.19,1.11,3.43-.84.2-1.77,1.02-2.19,1.68-.61.93-.72,1.77-.79,3.18-.06,1.16-.27,2.45-.33,3.65-.03.73-.22,1.07.11,1.66.45.8,1.38.77,2.21.77v5.31c0,.45-1.18.45-1.83.6-.56.13-1.52.31-1.93.51-.47-.89-2.16-4.37-2.21-4.97.98-.23,1.55-.87,1.55-1.88,0-.65-2.1-3.86-2.61-4.79-1.03-1.89-2.2-2.84-4.57-2.84.11-1.37.46-2.52-.75-4.01-2.65-3.27-7.99-1.69-7.99,2.9,0,1.85,1.2,3.1,2.65,3.87-.24.88-2.13,1.51-.68,5.54.25.68.51,1.31.75,2.02.69,2.05.89,3.39,2.47,3.39.39,0,.91-.35,1.33-.44.17.73,1.27,2.88,1.66,3.65.23.45.42.77.55,1.33-.86.45-1.78,1.17-2.46,1.85l-4.2,4.42c-.2.25-.27.37-.46.64-.18.26-.28.37-.46.64-.33.49-.55.85-.85,1.36l-1.48,2.84c-1.7,3.55-2.47,7.36-2.47,11.57,0,.47.34.88.77.88,1.09,0,.8-.92.93-1.83.41-2.79.04-3.49,1.26-7.14,1.82-5.42,4.96-9.79,9.41-13.14,1.71-1.28,3.37-2.16,5.31-3.09.57-.28,1.42-.62,2.1-.77.16.69,1.36,2.82,1.12,3.43-.43,1.07-1.44,1.96-1.8,3.08-.32.98-.04,2.95.65,3.69.54.58,2.75,1.3,3.57,1.3,1.41,0,3.08-2,4.31-2.65,2.41,1.28,1.53,1.52.54,5.4-.16.62-.23.59-.83.82-5.35,2.04-3.96,2.37-6.63.92-.76-.42-1.28-.85-2.25-.85-.6,0-.88.41-.88.88,0,.82.44.68,1.07.8.6.12,1.83.99,2.42,1.34,1.76,1.05,2.72.16,4.59-.58,4.18-1.67,3.57-.93,4.89-5.61.45-1.59.7-2.65-.77-3.74-2.09-1.56-2.52-1.33-4.42.1-.33.25-1.73,1.39-2.04,1.39-.39,0-2.03-.52-2.32-.66-.1-.2-.31-1.4-.32-1.67,0-.43.42-.99.63-1.33.52-.86,1.35-2,1.35-3.07,0-.89-.99-2.57-1.22-3.54,6.44-1.5,12.66-1.13,18.53,1.81,1.92.96,3.68,2.05,5.31,3.42.76.64,2.3,2.4,2.91,2.4.66,0,.77-.62.77-1.11,0-.46-1.73-1.86-2.18-2.24-.43-.37-.73-.65-1.2-1.01-.48-.36-.86-.67-1.37-.95.09-.39.33-.89.52-1.25l1.13-2.41c.19-.46.47-.88.57-1.31,1.16.27,2.22,1.23,3.03-.84.47-1.2,2.05-5.18,2.05-6.24,0-1.96-.43-1.94-1.22-3.43,4.45-2.36,2.97-8.51-1.88-8.51-.84,0-1.46.2-2.03.52-.67.37-.97.66-1.43,1.22-1.19,1.47-.87,2.57-.75,4.01-1.45,0-2.02.17-2.88.77-.87.61-1.16,1.09-1.69,2.06-.36.65-2.61,4.13-2.61,4.79,0,1.01.57,1.65,1.55,1.88-.05.59-1.75,4.11-2.21,4.97-.45-.22-2.18-.57-2.85-.69-.88-.15-.91.15-.91-.85,0-1.62-1.77-1.42-1.77.11v.33c-2.23,0-1.66.27-1.66-3.76,0-1.22.34-3.32-.88-3.32s-.88,2-.88,3.21v3.1c.02,1.11-.43.76-1.66.76,0-1.03.2-5.91-.18-6.56-.39-.66-1.59-.41-2.25-.41,0-.77.19-1.66.22-2.43.05-1.24.11-3.65.91-4.51.41-.44,1.04-.91,1.86-.91h3.98c1.65,0,2.46,1.37,2.54,2.87.04.77.19,1.67.22,2.43.04.83.22,1.73.22,2.54-.65,0-1.86-.25-2.25.41-.43.73-.28,2.8.7,2.8.86,0,.88-.88.88-1.55.84,0,1.71.04,2.17-.7.52-.84-.09-4.28-.17-5.27-.12-1.48-.12-2.2-.76-3.22-.43-.69-1.37-1.54-2.24-1.74.83-1.24,1.11-1.78,1.11-3.43,0-3.34-4.49-5.49-7.43-2.9-.64.56-1.41,1.75-1.41,2.9Z"/>
      <path class="cls-2" d="m49.2,62.44c.24-1.01,2.49-2.01,3.02-3.28.15-.35.25-.85.42-1.13.22-.39.6-.36,1.11-.44,3.16-.5,2.64-.92,3.57.6,1.13,1.84,1.28,1.82,3.73,2.12.81.1.78.22,1.17.71.74.91-.16,1.13-1.02,2.26-.44.59-.65.51-1.3.28-.98-.35-1.89-.63-2.9-.97-2.05-.68-2.3-1.14-4.16.18-.36.25-.8.57-1.19.81-.5.31-.85-.02-1.3-.3-.47-.29-.82-.45-1.15-.84h0Zm-1.66-.44c0,1.24.16,1.7,1.35,2.41,1.98,1.18,2.42,1.45,4.2.26,2-1.34.93-1.27,4.39-.12.46.15.9.3,1.39.49,2.47.96,2.96.24,4.79-1.97.75-.91.76-1.86.12-2.83-.21-.32-.56-.8-.83-1.04-.67-.59-1.81-.6-2.89-.75-.68-.1-.72-.24-1.02-.75-1.52-2.63-1.73-2.65-6.31-1.68-2.08.44-1.37,1.91-2.55,2.98-.18.16-.26.28-.45.43-.71.59-2.18,1.6-2.18,2.58Z"/>
      <path class="cls-2" d="m65.67,53.71c0,.61.16.61.44,1l1.61,2.7c.58.97,1.29,2.85,1.66,3.97.81,2.4.86,3.34,1.21,5.75.17,1.16-.19,3.38.93,3.38.65,0,.84-.41.88-.9v-.97h0c0-3.16-.91-6.61-1.78-8.95-.56-1.51-1.01-2.28-1.68-3.63-.23-.47-1.75-3.13-2.29-3.13-.49,0-.99.09-.99.77Z"/>
      <path class="cls-2" d="m27.98,62.44c0,1.16.35,4.12.9,4.96.39.58.81,1.05,1.24,1.63.39.52,1.01,1.48,1.5,1.48.53,0,.88-.35.88-.88,0-1.1-2.23-2.49-2.42-3.88-.51-3.77-.68-3.32.49-3.68,1.1-.34.84-2.43-1.39-1.39-.56.26-1.21.99-1.21,1.77Z"/>
      <path class="cls-2" d="m28.31,51.94c0,1.2,2.21,1.24,2.21,0s-2.21-1.19-2.21,0Z"/>
      <path class="cls-2" d="m30.41,54.82c0,1.19,2.21,1.29,2.21-.11,0-.92-2.21-1.17-2.21.11Z"/>
      <path class="cls-2" d="m23,63.88c0,1.38,2.21.98,2.21.22,0-1.09-.59-.99-1.44-.99-.52,0-.77.26-.77.77Z"/>
    </g>
  </g>
</svg>