<?xml version="1.0" encoding="UTF-8"?>
<svg id="Layer_2" data-name="Layer 2" xmlns="http://www.w3.org/2000/svg" viewBox="0 0 88.23 88.23">
  <defs>
    <style>
      .cls-1 {
        fill: #fff;
        fill-rule: evenodd;
      }

      .cls-2 {
        fill: #aac598;
      }
    </style>
  </defs>
  <g id="Layer_1-2" data-name="Layer 1">
    <circle class="cls-2" cx="44.11" cy="44.11" r="44.11" transform="translate(-18.27 44.11) rotate(-45)"/>
    <g>
      <path class="cls-1" d="m18.69,66.66v-1.92h18.95l.71,1.44c.27.55.63.83,1.44.83h8.63c.72,0,1.14-.24,1.4-.75l.75-1.52h18.95c0,1.72.3,4.8-2.88,4.8H21.57c-1.66,0-2.88-1.22-2.88-2.88h0Zm6-28.9v25.18h13.43c.91,0,1.64,2,1.68,2.16h8.63c.13-.55.39-.77.64-1.28.24-.48.37-.88,1.04-.88h13.43v-25.18h-3.12v17.03c0,1.79-1.21,3.12-3,3.12h-26.62c-1.79,0-3-1.33-3-3.12v-17.03h-3.12Zm5.04,17.39V19.65c0-.71.48-.96,1.2-.96h18.83v7.79c0,.58.38.96.96.96h7.79v27.7c0,.73-.6.96-1.32.96h-26.14c-.71,0-1.32-.23-1.32-.96h0Zm30.7-21.1h4.92c.69,0,1.3.36,1.62.78.35.47.42,1.21.42,1.98v26.14h-1.92v-25.9c0-.49-.4-1.08-.84-1.08h-4.2v-1.92h0Zm-37.65,3v25.9h-1.92v-26.38c0-.77.13-1.39.47-1.8.3-.37.9-.71,1.56-.71h4.92v1.92h-4.2c-.44,0-.84.58-.84,1.08h0Zm28.78-17.03v5.64l5.67-.03-5.67-5.61h0Zm-23.74.12v12.11h-5.04c-2.15,0-3.72,1.75-3.72,3.96v26.74c-2.51,0-2.16-.17-2.16,3.84,0,2.53,2.03,4.56,4.56,4.56h45.33c2.53,0,4.56-2.03,4.56-4.56,0-4.01.36-3.84-2.16-3.84v-26.74c0-2.21-1.57-3.96-3.72-3.96h-5.04v-5.28c0-1.09-1.14-1.91-2.07-2.85l-4.92-4.92c-.42-.42-2.1-2.31-2.61-2.31h-20.26c-.88,0-1.57.5-2.01.98-.5.54-.74,1.25-.74,2.25Z"/>
      <path class="cls-1" d="m42.56,40.28c0,.46.16,1.08.72,1.08h10.43c.97,0,.97-1.8,0-1.8h-10.43c-.29,0-.72.43-.72.72Z"/>
      <path class="cls-1" d="m42.56,33.68c0,.57.04,1.08.84,1.08h10.19c1.2,0,1.13-1.8-.12-1.8h-9.95c-.44,0-.96.33-.96.72Z"/>
      <path class="cls-1" d="m42.56,46.87c0,.49.09,1.08.96,1.08h9.95c1.25,0,1.32-1.8.12-1.8h-10.31c-.29,0-.72.43-.72.72Z"/>
      <path class="cls-1" d="m36.08,40.64c-.38-.57-1.3-1.54-2.04-.84-1.03.97,1.46,3,2.04,3,.78,0,1.37-.95,2.13-1.71,1.02-1.02,1.71-1.29,1.71-2.25,0-.56-.61-.72-1.08-.72-.44,0-2.23,2.16-2.76,2.52Z"/>
      <path class="cls-1" d="m36.08,34.04c-1.07-1.6-2.28-1.19-2.28-.12,0,.64,1.63,2.28,2.28,2.28.78,0,1.37-.95,2.13-1.71,1.02-1.02,1.71-1.29,1.71-2.25,0-.24-.33-.72-.84-.72-.92,0-1.91,1.79-3,2.52Z"/>
      <path class="cls-1" d="m36.08,47.23c-.78-1.17-2.28-1.73-2.28,0,0,.35.74.92.99,1.17,1.44,1.44,1.26,1.44,3.36-.66.77-.77,1.77-1.4,1.77-2.19s-.51-.84-1.08-.84c-.44,0-2.23,2.16-2.76,2.52Z"/>
    </g>
  </g>
</svg>