<?xml version="1.0" encoding="UTF-8"?>
<svg id="Layer_2" data-name="Layer 2" xmlns="http://www.w3.org/2000/svg" viewBox="0 0 88.23 88.23">
  <defs>
    <style>
      .cls-1 {
        fill: #96a0a0;
        fill-rule: evenodd;
      }

      .cls-2 {
        fill: #1d1d1b;
      }
    </style>
  </defs>
  <g id="Layer_1-2" data-name="Layer 1">
    <circle class="cls-2" cx="44.11" cy="44.11" r="44.11" transform="translate(-10.01 13.08) rotate(-15.17)"/>
    <g>
      <path class="cls-1" d="m32.92,53.25c-2.8,0-4.64-3.51-5.58-5.58-.21-.46-.88-2.36-.89-2.92.82,0,1.64.21,2.41.25,2.54.12,5.41.29,7.95-.03.72-.09,1.85-.29,2.57-.35-.04,1.97-2.81,8.62-6.47,8.62h0Zm-15.85-11.67c.2,1.57,1.81,3.97,2.75,5.24.9,1.21,2.95,3.02,4.2,3.79.68.42,2.71,1.55,3.58,1.62-.73-1.09-1.39-2.05-1.99-3.34-2.55-5.5-.13-4.13-3.03-4.96-.71-.2-1.31-.42-2-.66-1.38-.48-2.35-1.09-3.5-1.7h0Zm21.18,10.78c.37-.2.57-.24,1-.4.33-.12.59-.27.95-.45.67-.34,1.13-.58,1.73-.94,1.55-.92,2.55-1.93,3.65-3.19.61-.7,1.26-1.51,1.72-2.34.48-.87,1.52-2.74,1.61-3.84-1.64,1.1-5.13,2.92-7.1,2.92-.39,1.69-.76,3.07-1.44,4.52-.29.61-.65,1.39-1,1.92l-1.12,1.8h0Zm-3.93-9.38c-2.01,0-4.1.08-6.05-.16-.69-.08-1.74-.29-2.44-.34-.03-1.38-.51-2.93-.51-6.34,0-1.23.13-1.96.13-3.17,1.13,0,4.54.76,8.24.76s4.1-.43,6.59-.63c.45,1.92.13,8.25-.28,9.11-.18.37.18.21-1.14.38-1.51.2-2.89.4-4.54.4h0Zm8.12-10.4c.79-.02,2.5-.74,3.13-1.06l2.71-1.48c.84,1.58,2.09,6.3.73,8.21-1.17,1.64-5.15,3.44-6.82,3.58.42-.87.38-5.5.38-6.85,0-1-.13-1.44-.13-2.41h0Zm-19.15,2.79l.13,4.57c.03.8.2,1.34.25,2.03-.71-.02-1.71-.46-2.36-.68-1.66-.56-2.8-1.24-4.11-2.23-.68-.52-1.01-.97-1.01-2.16,0-2.81.68-5.65,1.65-7.48.5.26.79.57,1.27.89.44.29.82.54,1.32.83.77.46,2.17.97,3.12,1.19-.19.39-.25,2.35-.25,3.04h0Zm9.64-15.6c4.3,0,7.05,8.78,7.1,11.29-1.23,0-2.92.51-5.2.51-3.35,0-4.2.05-7.5-.49-.54-.09-1.02-.23-1.5-.27.29-1.23.5-2.45.87-3.57.81-2.4,1.47-4.08,3.17-5.96.22-.25,1-.83,1.29-1,.35-.2,1.25-.51,1.77-.51h0Zm13.7,2.03c0-1.89.84-3.69,2.12-4.98,2.8-2.8,7.17-2.79,9.96,0,4.65,4.65.95,12.08-4.98,12.08-1.88,0-3.71-.86-4.98-2.12s-2.12-3.08-2.12-4.98h0Zm-8.37-1.14l.68,1.1c1.4,2.37,3.13,5.97,3.13,8.79.95-.46,2.21-.45,4.51-1.96.36-.24.12-.2.57-.32-.12-.45-.62-.8-.92-1.24-.9-1.35-.85-1.83-1.59-2.47-1.73-1.5-2.81-2.28-4.93-3.31-.52-.25-.97-.34-1.44-.59h0Zm-14.46,9.51c.07-.9.41-2.04.61-2.82.35-1.38,1.23-3.45,1.95-4.64l1.25-2.05c-.45.24-.91.37-1.43.6-.47.2-.82.4-1.28.63-2.28,1.15-4.5,3.39-5.92,5.5.74,1.1,3.54,2.68,4.82,2.79h0Zm20.8-8.37c-.91-.61-.93-.74-2.18-1.5-5.35-3.25-12.01-3.36-17.69-.74-.55.25-.87.48-1.39.76-1.44.78-3.97,2.95-4.86,4.14-2.87,3.79-4.31,7.14-4.31,12.43,0,4.1,1.85,8.83,4.41,11.7.61.68,1.09,1.28,1.75,1.8,1.76,1.37,2.29,2.09,4.91,3.21,5.09,2.18,10.18,2.31,15.35.07.93-.4,2.15-1.08,2.92-1.65,2.91-2.14,4.49-3.66,6.35-7.35,1.98-3.93,2.38-8.55,1.28-12.9-.12-.49-.27-.76-.31-1.22,1.34.11.74.38,3.55.38,1.11,0,2.68-.51,3.42-.89,1.16-.61,2.15-1.36,2.96-2.36,2.67-3.29,2.85-7.58.49-11.1-.19-.28-.23-.33-.44-.58-1.52-1.85-3.95-3.33-6.44-3.33-2.01,0-2.76,0-4.67.91-.88.42-1.28.77-1.98,1.32-1.99,1.54-3.11,4.37-3.11,6.9Z"/>
      <path class="cls-1" d="m68.4,38.49l2.96,9.05c-.71-.32-3.85-1.39-4.71-1.39-.63,0-1.18,1.76-1.5,2.55l-3.7,8.86c-.43.97-.79,1.94-1.23,2.96-.97,2.25-2.81,6.95-3.71,8.84-.35-.25-1.32-1.61-1.65-2.03-.25-.33-.51-.64-.79-.98l-3.28-4.2c-1.43-1.97-2.24.07-3.38,1.78-.54.81-5.59,8.2-5.73,8.73h-.25c-.11-.4-2.97-4.29-3.33-4.78-.63-.84-.8-1.43-1.61-1.43-.77,0-1.2.83-1.62,1.3l-3.4,4.08c-.21.27-.43.71-.82.71h-10.4v-2.03h9.13c.62,0,.88-.4,1.14-.76l5-6.42c.28-.36.72-.77.83-1.2.56.37,3.19,4.26,3.68,4.95.53.75.78,1.39,1.52,1.39.85,0,1.52-1.45,2.26-2.56.66-.99,1.28-1.92,1.93-2.89.35-.52,3.68-5.36,3.8-5.83.6.16,1.17,1.27,1.54,1.76l3.6,4.77c.28.39.47.7,1.07.7.96,0,1.14-1.07,1.45-1.85.34-.86.63-1.65.96-2.46.66-1.64,1.25-3.27,1.92-4.93.5-1.24,3.79-9.09,3.79-10.29,0-.71-1.29-.96-1.89-1.16-.55-.18-1.84-.7-2.43-.74l8.85-4.49h0Zm-12.66,4.61c0,1.09,1.67,1.34,2.55,1.63.99.33,2.17.8,3.15,1.03-.05.6-4.6,11.84-5.18,13.46-.23.63-.63,1.41-.78,2.01-.39-.26-4.25-5.58-4.81-6.35-1.1-1.49-1.9-.13-2.31.49-.34.51-.62.93-.96,1.45l-3.86,5.78c-.34.51-.62.93-.96,1.45-.27.4-.8,1.06-.91,1.5h-.25c-.11-.4-1.95-2.84-2.23-3.22-.38-.53-1.91-2.99-2.46-2.99-1.22,0-1.15.52-2.45,2.12l-1.83,2.36c-.97,1.3-2.79,3.46-3.59,4.66h-8.75c-2.38-.02-1.9.13-1.9,5.07,0,.61.4,1.01,1.01,1.01h12.17c.81,0,1.89-1.62,2.65-2.55l1.74-2.07c.29-.37.31-.45.69-.71l2.95,4.15c.69.92,1.24,2.19,2.12,2.19s1.52-1.45,2.26-2.56l3.96-5.94c.36-.53,1.66-2.65,2.03-2.92.12.44,4.41,5.78,4.89,6.39.62.79,2.21,3.5,3.21.95,2.72-6.93,6.02-14.35,8.91-21.4.18-.43.57-1.14.62-1.67.4.19,5.43,1.9,5.71,1.9,1.95,0,.39-3.08-.08-4.49l-2.28-6.85c-.21-.63-.37-1.11-.57-1.71-.82-2.5-2.06-.93-6.43,1.15l-6.74,3.4c-.58.29-1.27.43-1.27,1.27Z"/>
      <path class="cls-1" d="m52.7,16.98c-1.97.46-3.78,3.88-.47,5.41.85.39,2.62.52,2.62,1.56,0,.66-1.31,1.27-2.04.52-.66-.68.56-.65-2.4-.65,0,2.55,2.28,2.54,2.28,3.17v1.4h2.03c0-2.2-.22-1.43.69-1.98,1.83-1.11,2.65-4.53-1.55-5.66-1.24-.34-1.12-.27-1.3-.73l-.02-.28c.23-1.15,2.2-1.15,2.3.03h2.16c0-1.49-1.06-2.51-2.28-2.79v-1.78h-2.03v1.78Z"/>
    </g>
  </g>
</svg>