<?xml version="1.0" encoding="UTF-8"?>
<svg id="Layer_2" data-name="Layer 2" xmlns="http://www.w3.org/2000/svg" viewBox="0 0 88.23 88.23">
  <defs>
    <style>
      .cls-1 {
        fill: #babe98;
        fill-rule: evenodd;
      }

      .cls-2 {
        fill: #1d1d1b;
      }
    </style>
  </defs>
  <g id="Layer_1-2" data-name="Layer 1">
    <circle class="cls-2" cx="44.11" cy="44.11" r="44.11" transform="translate(-15 64.05) rotate(-63.64)"/>
    <g>
      <path class="cls-1" d="m40.92,59.1c.05-.59.57-1.89.78-2.53.51-1.54,2.91-8.01,2.72-8.82-.36-1.53-2.3-1.06-3.99-1.06h-6.76c.1-.38,1.16-1.81,1.5-2.31.54-.8,1.07-1.5,1.62-2.31l9.53-13.69c-.04.43-.17.84-.28,1.32-.08.37-.18.83-.29,1.31l-1.8,8.15c-.6,2.94,1.1,2.37,3.84,2.37h6.63c-.53.78-1.06,1.41-1.63,2.18l-3.37,4.37c-.32.39-.53.71-.84,1.12-1.47,1.95-6.2,8.21-7.67,9.9h0Zm-11.3-11.06c0,.94.8,1.36,1.84,1.36h9.71c-.11,1.33-5.41,15.6-5.41,17.19,0,.35.09.51.28.71.35.36.63.4,1.08.4.94,0,2.15-1.96,2.97-3.05l12.67-16.44c.68-.91,5.86-7.29,5.86-8.02,0-.94-.8-1.36-1.84-1.36h-9.96c.03-.36.15-.72.22-1.01.47-2.16,3.47-15.39,3.47-16.19,0-.56-.61-1.11-1.47-1.11-.78,0-1.15.81-1.5,1.33l-12.02,17.34c-.4.57-.79,1.17-1.21,1.74-.22.3-4.69,6.47-4.69,7.11Z"/>
      <path class="cls-1" d="m12.66,29.37v26.91c0,1.88,1.16,3.67,2.18,4.58,1.33,1.18,3.16,1.69,5.07,1.69h9.46c2.03,0,2.32-2.68.25-2.71-2.21-.04-10.21.27-11.67-.25-1.28-.46-2.59-1.68-2.59-3.43v-26.9c0-1.02.66-1.85,1.32-2.49.69-.67,1.65-.96,2.98-.95h17.45c2.63.02,1.97-2.7.49-2.7h-18.31c-3.61,0-6.63,2.97-6.63,6.27Z"/>
      <path class="cls-1" d="m54.56,24.46c0,.48.31.92.61,1.11.75.48,7.38.2,8.73.23,1.52.04,2.7.9,3.32,2.09.92,1.77.21,3.77.53,4.87.46,1.57,3.25.55,4.39,1.02.41.17.73.58.73,1.12v15.85c0,1.59-2.29,1.23-3.32,1.23-3.7-.03-.36,3.81-2.85,6.49-.79.85-1.69,1.37-3.28,1.38h-11.55c-.81,0-1.61-.14-2.07.26-1.02.89-.33,2.43,1.21,2.43h12.04c4.58,0,7.37-2.79,7.37-7.37v-.49c1.49,0,2.77-.04,3.84-1.07.69-.67,1.32-1.56,1.32-2.86v-15.97c0-2.04-1.87-3.81-3.93-3.81h-1.23c0-2.5-.23-3.85-1.73-5.64-.96-1.14-2.72-2.23-4.78-2.23h-7.99c-.72,0-1.35.63-1.35,1.35Z"/>
    </g>
  </g>
</svg>