<?xml version="1.0" encoding="UTF-8"?>
<svg id="Layer_2" data-name="Layer 2" xmlns="http://www.w3.org/2000/svg" viewBox="0 0 88.23 88.23">
  <defs>
    <style>
      .cls-1 {
        fill: #eeb896;
      }

      .cls-2 {
        fill: #1d1d1b;
        fill-rule: evenodd;
      }
    </style>
  </defs>
  <g id="Layer_1-2" data-name="Layer 1">
    <circle class="cls-1" cx="44.11" cy="44.11" r="44.11" transform="translate(-13.79 67.33) rotate(-66.85)"/>
    <g>
      <path class="cls-2" d="m57.3,68.21l.13,1.27h-2.15v2.03h7.99c1.47,0,1.47,2.03,0,2.03H23.96c-1.48,0-1.48-2.03,0-2.03h5.96v-2.03h-14.07c-1.2,0-1.56-1.51-.43-1.95.42-.16,1.07-.08,1.57-.08,1.14,0,2.27.12,3.05-.25.76-.36,1.27-.86,1.6-1.7.23-.57.08-.93.25-1.39.14-.38.56-.72,1.06-.72h49.44c.57,0,1.14.51,1.14,1.01,0,1.42-2.51,1.01-3.93,1.01s-9.3-.09-9.97.05c-1.15.25-2.33,1.42-2.33,2.74h0Zm-4.06-8.87c0-2.88,3.87-4.1,5.45-1.78l.28.48c.48.66,1.2.12,1.93,1.11.39.53.41,1.24.7,1.84,1.32-.7,2.53-.95,3.42.38h-13.44c.63-.95.84-.69,1.78-1.14-.01-.59-.13-.42-.13-.89h0Zm-26.37-5.07c0-2.16,2.62-4.08,4.9-2.36.38.29.94,1,1.06,1.47,1.34,0,1.72-.28,2.77.4.62.4,1.23,1.22,1.41,2.01.76-.06,2.48-1.27,4.16.41,1.03,1.03,1.22,2.64.29,3.91-.21.29-.92,1.26-1.27,1.26h-14.33c-.77,0-3.38-3.08-1.05-5.23.78-.72,1.3-.55,2.19-.98-.01-.59-.13-.42-.13-.89h0Zm22.31,7.1c.15-.18.05,0,.2-.31,1.48-2.95,1.54-1.22,1.93-2.88.83-3.57,5.59-5.71,8.91-2.02.55.61.27.2,1.13.65v-5.58c-1.62,1.08-3.54,1.43-5.32.5-.41-.22-.99-.77-1.4-.88-1.01,1.91-3.26,4.31-5.45,4.31v6.21h0Zm-17.24-12.04c0,.51.64.42,1.43,1.23.96,1,.43.46,1.77.76,2.28.51,2.23,1.83,3.26,1.94,1.16.12,1.34-.12,2.4.26,1.62.59,3.31,2.42,3.31,4.42,0,2.65-.57,2.23-.89,3.42h3.93v-6.21c-1.47,0-3.2-1.31-4.1-2.37-.36-.43-.64-.74-.95-1.21-.6-.92-.98-1.77-1.37-2.94-.28-.83-.68-2.49-.68-3.5h-8.11v4.18h0Zm15.21-2.66v-7.61h2.03v3.04c.34-.22.81-.93,1.11-1.3.39-.48.71-.86,1.04-1.37.33.09.58.32.85.55.33.27.47.37.8.59-.14.58-1.27,1.81-1.7,2.35-.63.8-1.19,1.46-1.82,2.24-.55.69-.28,2.64-.28,3.77v4.06c4-.33,7.56-9.97,2.7-16.02-.42-.53-.45-.51-.97-.94-.64-.52-1.68-1.04-2.75-1.04-3.1,0-4.86,3.24-5.63,5.77-.62,2.06-.53,4.41-.05,6.48.5,2.17,2.34,5.54,4.66,5.74,0-1.29.18-2.17-.3-2.87l-3.63-5.5c.61-.33,1.2-.76,1.78-1.14.27.51,1.81,2.92,2.15,3.17h0Zm-8.65-9.6l3.33-.03c-.1.38-.36.68-.54,1.1-.18.41-.3.82-.47,1.18l-2.31-2.25h0Zm22.85-.03l-2.16-2.66c-.41.11-1.09.77-1.65,1.14.12.52.58.96.92,1.37l2.03,2.54c.45.55.86.88.86,1.42v6.09c0,2.58-2.57,4.13-4.67,2.77-1.89-1.22-.4-1.5-.4-4.8,0-2.67-.17-4.5-1.31-6.93-.36-.78-1.36-1.76-.2-3.57.46-.71.86-.71,1.25-1.29-.14-.52-1.7-2.43.15-4.29,1.22-1.22,2.27-.85,3.02-.79.24-.49.59-3.17,3.17-3.17.79,0,1.78.53,2.19.98.72.78.55,1.3.98,2.19.44,0,1.74-.49,3.02.79,1.87,1.87.27,3.78.15,4.28.36.54.73.56,1.15,1.14,1.05,1.46.67,2.81-.41,4.03-.21.24-.31.41-.48.66,1.27.67,2.54,1.5,2.54,3.17,0,1.39-1.18,2.73-2.54,3.04.06.76,1.27,2.48-.41,4.16-1.22,1.22-3.18,1.16-4.32-.06-1.07-1.15-.85-2.71-.85-4.35,0-.43.13-.54.34-.8.62-.73,3.32-3.94,3.46-4.53-.33-.22-.47-.32-.8-.59-.27-.22-.52-.46-.85-.55l-2.16,2.66v-10.14h-2.03v6.09h0ZM30.81,14.84c-.39,0-.49.45-.64.76-.96,2.02-2.94,5.03-4.46,6.57l-2.11,2.08c-.93.74-2.63,1.89-2.81,2.64h7.1v2.03c-2.08,0-1.39-.2-2.95,1.36-1.21,1.21-3.79,3.4-3.9,4.72h6.85v2.03c-2.25,0-1.46-.13-4.41,2.82-.75.75-2.34,2.03-2.44,3.26h19.02c0-1.46.55-1.07-.47-2.06-.5-.49-.9-.9-1.4-1.39-2.82-2.82-2.01-2.63-4.22-2.63v-2.03h6.85c-.1-1.24-1.74-2.56-2.5-3.33-2.91-2.91-2.11-2.76-4.34-2.76v-2.03h7.1c-.18-.75-.76-1.01-1.34-1.45-1.37-1.03-2.45-2.1-3.64-3.33-1.18-1.22-3.21-4.11-3.98-5.65-.51-1.01-.52-1.61-1.31-1.61h0Zm-12.04,11.79v2.28h4.56c-1.31,1.95-4.56,3.32-4.56,6.85v1.27h4.56c-.45.67-2.13,2.2-2.82,2.88-1.68,1.66-1.74,3.04-1.74,5.23h11.16v4.06c-2.59,0-4.42,1.76-4.92,3.7-.36,1.4-.19.27-1.96,2.09-1.25,1.29-1.57,3.55-.93,5.18.19.47.48.79.58,1.19-1.25,0-2.12.75-2.58,1.6-.64,1.17.1,2.43-1.72,2.46-1.3.02-3.03-.19-3.94.24-2.94,1.4-1.97,5.62.89,5.83,1.65.13,3.87,0,5.58,0-.56,2.39.98,4.06,2.66,4.06h40.06c1.55,0,2.79-1.33,2.79-3.3,0-1.4-1.34-2.69-2.66-2.79-1.49-.11-4.44.55-4.44-1.02,0-1.42,2.51-1.01,3.93-1.01s9.3.1,9.97-.05c3.34-.72,2.96-5.78-.33-6.04-1.65-.13-3.87,0-5.58,0-.39-1.69-1.83-3.04-3.93-3.04v-7.1c1.39.93,1.74,1.01,3.42,1.01,2.24,0,4.06-1.95,4.54-3.7.22-.77.09-1.03.14-1.89.07-1.41,2.04-.94,2.04-4.93,0-1.82-1.07-2.63-1.52-3.3.33-1.4.51-.56.51-2.79,0-1.41-.69-2.17-1.27-3.04.3-1.27.25-.4.25-2.03,0-2.22-1.96-4.09-3.7-4.54-.96-.25-.69-.17-1.14-.89-1.62-2.6-5.49-3.07-7.55-1.13-.37.35-.68.61-.97,1.06-.52.79-.13.7-1.19.97-1.74.45-3.7,2.32-3.7,4.54,0,1.34-.04.69.16,1.76.15.81-.81.97-.92,2.3-.52-.35-.98-.74-1.61-1.05-2.75-1.33-5.83-.42-7.77,1.81-.27-3.3-3.28-4.55-4.56-6.47h4.56c0-1.82.29-3.27-1.08-4.37-.63-.5-1.18-.86-1.8-1.37-2.35-1.99-4.34-4.38-5.88-7.06-.39-.68-.68-1.37-1.09-2.08-1.02-1.79-3.52-1.83-4.61-.08-.39.63-.66,1.41-1.07,2.1-2.27,3.84-4.29,5.84-7.67,8.44-.55.42-1.16,1.21-1.16,2.14Z"/>
      <path class="cls-2" d="m29.92,67.45c1.21,0,2.79-.14,3.93.13.21.91.08,1.21.61,1.92,1.06,1.43,3.05.99,5.6.99v-2.03c-1.21,0-2.79.14-3.93-.13-.21-.91-.08-1.21-.61-1.92-1.06-1.43-3.05-.99-5.6-.99v2.03Z"/>
    </g>
  </g>
</svg>