<?xml version="1.0" encoding="UTF-8"?>
<svg id="Layer_2" data-name="Layer 2" xmlns="http://www.w3.org/2000/svg" viewBox="0 0 88.23 88.23">
  <defs>
    <style>
      .cls-1 {
        fill: #fff;
      }

      .cls-2 {
        fill: #98c7ad;
        fill-rule: evenodd;
      }
    </style>
  </defs>
  <g id="Layer_1-2" data-name="Layer 1">
    <circle class="cls-1" cx="44.11" cy="44.11" r="44.11" transform="translate(-18.27 44.11) rotate(-45)"/>
    <g>
      <path class="cls-2" d="m47.26,67.16h12.61v6.3h-12.61v-6.3h0Zm11.56-4.73v2.63h-10.51v-9.46c0-5.52,3.69-6.72,7.45-8.97l5.22-3.06c1.95-1.18,3.36.27,3.36,1.65,0,1.27-.89,1.72-1.75,2.19l-5.08,2.93c-.4.28-.77.58-.71,1.13.24,2.21,3.12-.05,4.04-.56,1.59-.87,4.47-2.3,5.2-3.73.51-.98.69-2.44.17-3.58-.4-.88-.32-.64.01-1.62l2.73-8.44c.34-1.03.85-2.25,2.22-2.25s2.1,1.31,2.1,1.97c0,.37-.4,1.76-.5,2.13l-4.05,15.13c-.54,1.85-1.42,2.32-3.03,3.67-.29.25-.44.46-.73.71l-3.55,3.15c-1.28,1.07-2.59,2.27-2.59,4.37h0Zm5.39-21.02c.06-.71,1.91-6.18,2.28-7.31.4-1.19.72-2.59,1.43-3.43.72-.85,1.71-1.48,3.25-1.48-.17-2.02-2.33-2.94-3.78-1.15-.53.66-3.89,11.42-4.63,12.97.51.01,1.09.22,1.45.39h0Zm-17.99,23.64c-.65.05-1.05.36-1.05,1.05v8.41c0,.64.42,1.05,1.05,1.05h14.71c.64,0,1.05-.42,1.05-1.05v-8.41c0-.69-.4-1-1.05-1.05,0-3.83-.11-3.69,2.59-5.95l4.5-4.03c2.25-1.71,2.53-2.81,3.18-5.36l2.44-9.12c.5-1.81,1.73-5.8,1.73-7.46s-1.05-2.86-2.1-3.41c0-1.29,0-2.3-1.08-3.39-.77-.77-1.5-1.37-3.01-1.39-1.29-.02-2.35.5-3.11,1.25-1.09,1.09-2.08,4.76-2.67,6.39l-2.85,8.32c-.18.52-.09.42-.5.68-.26.17-.48.27-.75.43-1.91,1.14-3.74,2.16-5.63,3.3-1.79,1.08-4.06,2.16-5.31,3.76-1.78,2.29-2.16,3.93-2.16,6.91,0,3.02,0,6.04,0,9.06Z"/>
      <path class="cls-2" d="m28.35,67.16h12.61v6.3h-12.61v-6.3h0Zm-13.4-33.76c0-2.06,3.14-3.46,4.25-.05l2.72,8.44c.3.88.51.9.12,1.72-.52,1.09-.42,2.51.08,3.59.83,1.75,4.8,3.5,6.58,4.58.4.24,1.09.76,1.6.76,1.11,0,1.05-.88,1.05-1.31,0-.67-3.12-2.2-3.98-2.72-.66-.4-2.65-1.39-3.06-1.93-1.13-1.49.08-3.37,1.53-3.37.99,0,3.44,1.63,4.38,2.19l6.29,3.69c2.08,1.3,3.39,3.74,3.39,6.6v9.46h-10.51c0-4.33.17-4.61-3.12-7.52l-4.34-3.81c-2.65-2.64-1.79-1.16-2.97-5.18-.8-2.74-1.48-5.84-2.3-8.6-.21-.72-.4-1.4-.6-2.16-.2-.81-.4-1.48-.58-2.18-.13-.54-.55-1.77-.55-2.21h0Zm3.94-6.3c-.92,0-1.75,1.02-1.84,2.1,3.34,0,3.95,2.71,4.68,4.91.37,1.1,2.22,6.59,2.28,7.31.35-.17.93-.38,1.44-.39-.54-1.12-.87-2.55-1.33-3.79l-2-5.75c-.77-2.31-1.11-4.38-3.23-4.38h0Zm-3.94,2.63c-2.57,1.36-2.31,3.86-1.62,6.22l3.04,11.28c1.01,3.67.89,5.57,3.7,7.72l6.12,5.44c1.31,1.08,1.1,3.01,1.1,4.68-.65.05-1.05.36-1.05,1.05v8.41c0,.64.42,1.05,1.05,1.05h14.71c.64,0,1.05-.42,1.05-1.05v-8.41c0-.69-.4-1-1.05-1.05v-8.93c0-1.88.01-2.52-.47-3.99-.43-1.3-.91-2.03-1.63-2.97-1.45-1.9-6.87-4.68-9.42-6.21-3.19-1.91-2.46-.96-3.31-3.52-.38-1.15-.75-2.12-1.15-3.32-.38-1.16-.76-2.13-1.15-3.32l-1.47-4.17c-.3-.8-.28-1.36-1.13-2.28-1.58-1.7-4.24-2.01-6.18-.06-.99.99-1.15,1.56-1.15,3.45Z"/>
      <path class="cls-2" d="m28.35,23.68c0-3.09,1.09-5.64,3.57-7.33,2.79-1.9,6.24-1.96,9.13-.25,2.61,1.55,2.25,3.61,4.6,1.24.51-.51.87-.85,1.52-1.24,2.43-1.47,5.17-1.6,7.79-.51.7.29,1.31.7,1.86,1.16,3.09,2.54,3.92,6.77,2.18,10.26-1,2-4.4,5.04-6.19,6.82-.69.69-8.14,8.26-8.7,8.64-.6-.4-11.87-11.81-12.97-12.91-1.5-1.5-2.79-3.53-2.79-5.88h0Zm-2.23-.53c0,2.62,1.1,5.49,2.79,7.19l13.73,13.72c1.35,1.35,1.53,1.43,2.89.07l13.73-13.72c3.79-3.77,3.82-10.57-.2-14.58-.88-.87-1.91-1.67-3.08-2.17-.65-.28-1.2-.5-1.95-.67-2.58-.6-4.39-.36-6.74.6-1.42.57-2.16,1.41-3.17,2.08-.91-.61-1.76-1.5-3.07-2.05-3.04-1.27-5.56-1.27-8.6-.04-3.46,1.4-6.32,5.31-6.32,9.57Z"/>
      <path class="cls-2" d="m38.85,26.18c4.83,0,4.2.62,4.2-4.2h2.1c0,4.83-.62,4.2,4.2,4.2v2.1c-4.83,0-4.2-.62-4.2,4.2h-2.1c0-4.83.62-4.2-4.2-4.2v-2.1h0Zm2.1-5.25v3.15c-4.98,0-4.2-.81-4.2,5.25,0,1.47,1.96,1.05,4.2,1.05,0,4.98-.81,4.2,5.25,4.2,1.47,0,1.05-1.96,1.05-4.2,4.98,0,4.2.81,4.2-5.25,0-1.47-1.96-1.05-4.2-1.05,0-4.98.81-4.2-5.25-4.2-.64,0-1.05.42-1.05,1.05Z"/>
    </g>
  </g>
</svg>