<?xml version="1.0" encoding="UTF-8"?>
<svg id="Layer_2" data-name="Layer 2" xmlns="http://www.w3.org/2000/svg" viewBox="0 0 88.23 88.23">
  <defs>
    <style>
      .cls-1 {
        fill: #d8e8c3;
      }

      .cls-2 {
        fill-rule: evenodd;
      }

      .cls-2, .cls-3 {
        fill: #1d1d1b;
      }
    </style>
  </defs>
  <g id="Layer_1-2" data-name="Layer 1">
    <circle class="cls-1" cx="44.11" cy="44.11" r="44.11"/>
    <g>
      <path class="cls-2" d="m47.24,44.12h2.1v5.24h-2.1v-5.24h0Zm-4.19,0h2.1v5.24h-2.1v-5.24h0Zm-4.19,0h2.1v5.24h-2.1v-5.24h0Zm11.13-2.62c-.44.83-.59.52-3.14.52l-8.23-.04c-.22-.09-.07.08-.21-.18-.22-.41.01-.28.03-.31.09-.12,1.01-.49,1.26-.59l3.86-1.66c.93-.39,2.09.47,3.84,1.19.74.31,1.87.9,2.6,1.07h0Zm-6.94-4.45c0-.46-.24-2.36,1.05-2.36s1.05,1.9,1.05,2.36c-.4-.09-.72-.34-1.05-.34s-.65.24-1.05.34h0Zm0-4.58c0,.65-1.04.29-1.84,1.96-.4.83-.26,2.31-.26,3.54-.6.32-5.2,2.32-5.63,2.36.25,1.07,1.44,2.37,1.44,3.54v5.5h-1.05v2.1h16.76v-2.1h-1.05v-5.63c0-.81,1.36-2.44,1.44-3.41-.43-.04-5.05-2.05-5.63-2.36,0-1.63.28-3.55-1.02-4.61-1.19-.98-1.07.26-1.07-2.86h-2.1v1.96Z"/>
      <path class="cls-2" d="m53.53,48.31c3.96,0,8.68-.38,12.01.95.85.34,1.46.64,2.16,1.11,5.18,3.5,7.08,9.7,4.63,15.56-1.13,2.72-3.57,5.15-6.23,6.34-5.74,2.56-12.35.65-15.69-4.48-2.72-4.16-2.12-9.33-2.12-14.25h-2.1v7.99c0,2.03.69,4.16,1.35,5.59.77,1.66,1.73,2.93,2.94,4.14,1.23,1.23,2.37,2.09,4.05,2.89,3.91,1.88,8.64,1.87,12.58.04,3.03-1.41,5.59-3.98,7.03-6.98,3.51-7.3.31-16.13-6.94-19.61-1.43-.69-3.63-1.4-5.68-1.4h-7.99v2.1Z"/>
      <path class="cls-2" d="m12.66,60.23c0,4.55,1.16,7.91,4.29,11.03,1.23,1.23,2.37,2.09,4.05,2.89,7.3,3.51,16.13.31,19.61-6.94.69-1.43,1.4-3.63,1.4-5.68v-7.99h-2.1c0,5.89.76,11.56-3.5,16.01-1.67,1.74-3.81,2.93-6.19,3.5-2.89.7-5.31.39-7.94-.71-5.35-2.23-8.51-8.4-7.18-14.14.22-.97.45-1.65.8-2.47.58-1.35,1.71-2.9,2.69-3.86,4.41-4.33,10.19-3.57,16.08-3.57v-2.1h-7.99c-7.22,0-14.01,6.77-14.01,14.01Z"/>
      <path class="cls-2" d="m65.97,64.03c-1.12,0-1.64-.11-2.45.3-.83.42-.99.85-1.61,1.27v-6.42c1.72.4,3.42,1.05,5.11,1.44,0,.79-.18,1.3-.38,1.85l-.67,1.55h0Zm-11.26-3.41c1.72-.4,3.42-1.05,5.11-1.44v6.42c-1.67-1.12-.76-1.57-4.06-1.57-.11-.4-1.05-1.74-1.05-3.41h0Zm1.96-2.88v-3.14h8.38v3.14c-1.05-.09-3.24-1.05-4.19-1.05-.86,0-3.26,1.03-4.19,1.05h0Zm3.14-5.24h-6.29v2.1h1.05v3.54c0,.86-2.1.29-2.1,1.18,0,1.58-.03,2.11.47,3.72.33,1.06.88,1.84.97,2.18-.33.49-.77.76-1.44.92v2.1c2.63,0,2.82-2.1,4.19-2.1,1.54,0,1.19,2.1,4.58,2.1,1.87,0,2.59-2.1,3.8-2.1,1.37,0,1.56,2.1,4.19,2.1v-2.1c-.67-.16-1.11-.43-1.44-.92.26-1.12,1.44-1.52,1.44-5.89,0-.82-2.1-.42-2.1-1.18v-3.54h1.05v-2.1h-6.29v-2.1h-2.1v2.1Z"/>
      <path class="cls-2" d="m46.19,26.7v1.7h2.1c0-2.27.27-4.01.91-5.63,1.19-2.98,3.41-5.41,6.33-6.77,4.8-2.24,10.54-1.21,14.14,2.41,7.67,7.72,3.03,21.51-9.59,21.51h-5.5v2.1c6.68,0,11.6.79,16.67-4.29,1.23-1.23,2.09-2.37,2.89-4.05,3.45-7.2.45-16.06-6.94-19.61-9.94-4.77-21,3.02-21,12.62Z"/>
      <path class="cls-2" d="m12.66,26.7c0,4.56,1.16,7.9,4.29,11.03,1.2,1.21,2.41,2.11,4.05,2.89,3.94,1.89,8.27,1.39,12.62,1.39v-2.1c-3.56,0-7.78.32-10.97-.95-3.8-1.52-6.52-4.7-7.5-8.74-.7-2.89-.39-5.31.71-7.94,1.14-2.74,3.56-5.14,6.23-6.34,5.78-2.58,12.51-.58,15.74,4.56,1.53,2.42,2.07,4.66,2.07,7.89h2.1c0-2.74-.12-4.85-1.35-7.29-2.4-4.77-7.22-8.42-12.66-8.42-4.55,0-7.91,1.16-11.03,4.29-2.42,2.42-4.29,6.05-4.29,9.73Z"/>
      <path class="cls-2" d="m58.51,30.5h4.72c.06.71.46,1.38.52,2.1h-5.76c.06-.71.46-1.38.52-2.1h0Zm-1.83-3.27v-.92h8.38c0,2.72-.37,2.1-7.2,2.1-.65,0-1.18-.53-1.18-1.18h0Zm0-6.02c0-.65.53-1.18,1.18-1.18h6.03c1.6,0,1.18,2.24,1.18,4.19h-8.38v-3.01h0Zm3.14-3.27h-2.36c-1.44,0-2.88,1.44-2.88,2.88v6.81c0,1.34.94,2.15,1.83,2.62l-1.83,6.29c.62.14,1.43.51,2.1.52.18-.78.46-1.54.66-2.36h7.07c.19.82.47,1.57.65,2.36.67-.01,1.48-.38,2.1-.52l-1.83-6.29c.89-.47,1.83-1.28,1.83-2.62v-6.81c0-1.44-1.44-2.88-2.88-2.88h-2.36v-1.05h-2.1v1.05Z"/>
      <path class="cls-2" d="m32.7,61.94h-11.53c-.58,0-1.18-.53-1.18-1.05,0-1.43,2.37-1.05,3.8-1.05h4.85c1.52,0,2.74.23,3.9-.94.39-.39,1.59-2.64,1.73-3.25h1.05l-1.29,5.39c-.21.64-.53.89-1.33.89h0Zm-5.24-4.19c.03-1.28.63-2.91.65-4.19l-1.13.02-2.01,4.17h2.49Zm-4.98,0c-1.57,0-2.13-.16-3.17.49-2.59,1.62-1.35,5.79,1.47,5.79h12.57c2.5,0,2.91-3,3.25-4.35.25-1,1.45-5.47,1.47-6.13-5.46,0-4.9-.45-5.63,1.05-.2.41-.39.77-.61,1.22-.67,1.35-.62,1.92-2.14,1.92.01-.61.9-5.99,1.05-6.29h-5.11l-3.14,6.29Z"/>
      <path class="cls-2" d="m21.05,35.61c.61.14,1.35.26,2.1.26.26-1.12,1-7.76,1.2-9.41l.9-6.99c-.02-.61-.21-.48-.78-.52-.53-.03-.74-.12-1.32-.12l-1.86,14.65c-.07.61-.24,1.42-.24,2.12Z"/>
      <path class="cls-2" d="m33.62,35.87c.62,0,1.58-.14,2.1-.26l-1.55-12.6c-.16-1.31-.27-3-.55-4.17-.6,0-.79.06-1.21.1-.63.06-.8-.14-.89.42l2.1,16.5Z"/>
      <rect class="cls-3" x="18.95" y="66.13" width="16.76" height="2.1"/>
      <rect class="cls-3" x="27.33" y="18.98" width="2.1" height="4.19"/>
      <rect class="cls-3" x="27.33" y="25.26" width="2.1" height="4.19"/>
      <rect class="cls-3" x="27.33" y="31.55" width="2.1" height="4.19"/>
    </g>
  </g>
</svg>