<?xml version="1.0" encoding="UTF-8"?>
<svg id="Layer_2" data-name="Layer 2" xmlns="http://www.w3.org/2000/svg" viewBox="0 0 88.23 88.23">
  <defs>
    <style>
      .cls-1 {
        fill: #c5b0b1;
        fill-rule: evenodd;
      }

      .cls-2 {
        fill: #fff;
      }
    </style>
  </defs>
  <g id="Layer_1-2" data-name="Layer 1">
    <circle class="cls-2" cx="44.11" cy="44.11" r="44.11" transform="translate(-2.05 86.08) rotate(-87.27)"/>
    <g>
      <path class="cls-1" d="m16.51,70.85c0-.61.5-1.11,1.11-1.11h52.99c1.25,0,1.11,1.32,1.11,1.97H16.51v-.86h0Zm28.59-16.88h10.72c.61,0,1.11.5,1.11,1.11v12.69h-11.83v-13.8h0Zm-13.8,1.11c0-.61.5-1.11,1.11-1.11h10.72v13.8h-11.83v-12.69h0Zm-1.97-.37c0-1.36,1.36-2.71,2.71-2.71h24.15c1.36,0,2.71,1.36,2.71,2.71v13.06h7.89v-19.84c-.67-.01-1.27-.35-1.71-.64-.5-.33-.78-.77-1.25-1.09-.67.45-1.59,1.85-3.57,1.85-3.06,0-3.01-.98-4.31-1.85-.57.38-.78.83-1.48,1.23-1.46.85-3.46.85-4.92,0-.7-.4-.91-.85-1.48-1.23-.57.38-.78.83-1.48,1.23-1.46.85-3.46.85-4.92,0-.7-.4-.91-.85-1.48-1.23-.67.45-1.59,1.85-3.57,1.85-3.06,0-3.01-.98-4.31-1.85-.67.45-1.59,1.85-3.57,1.85-3.06,0-3.01-.98-4.31-1.85-.58.39-1.49,1.69-2.96,1.72v19.84h7.89v-13.06h0Zm35.49-11.83v-.74h5.91c0,1.16,0,2.1-.83,2.99-1.73,1.87-5.09.81-5.09-2.25h0Zm-7.89,0v-.74h5.91c0,1.16,0,2.1-.83,2.99-1.1,1.19-3.02,1.29-4.26,0-.49-.51-.83-1.31-.83-2.25h0Zm-7.89,0v-.74h5.91c0,1.16,0,2.1-.83,2.99-1.73,1.87-5.09.81-5.09-2.25h0Zm-7.89,0v-.74h5.91c0,1.16,0,2.1-.83,2.99-1.1,1.19-3.02,1.29-4.26,0-.49-.51-.83-1.31-.83-2.25h0Zm-7.89,0v-.74h5.92c0,1.16,0,2.1-.83,2.99-1.73,1.87-5.09.81-5.09-2.25h0Zm-7.89,0v-.74h5.91c0,1.16,0,2.1-.83,2.99-1.73,1.87-5.09.81-5.09-2.25h0Zm-7.89,0v-.74h5.91c0,1.16,0,2.1-.83,2.99-1.73,1.87-5.09.81-5.09-2.25h0Zm24.52-8.63h4.19c0,.68.59,5.61.74,5.91h-5.67c.15-.3.74-5.23.74-5.91h0Zm19.55.02l4.73-.02c.08.36.2.49.37.74l1.38,2.19c.33.52.56.91.89,1.45.34.55.64.98.93,1.53h-5.42l-2.88-5.89h0Zm-7.1-.02l2.22,5.91,5.47-.02-2.88-5.89h-4.81Zm-22.92,5.91h-5.42l2.88-5.89,4.76-.02-1.64,4.4c-.21.53-.36,1.05-.58,1.51h0Zm-7.81-.02l2.88-5.89h-4.68c-.14.62-3.05,4.92-3.57,5.91l5.38-.02h0Zm24.44-5.89h4.07l2.22,5.91h-5.55c0-.68-.59-5.61-.74-5.91h0Zm-8.87,5.91c0-.68.59-5.61.74-5.91h-4.07l-2.22,5.91h5.54Zm-3.08-9.86h15.77v1.97h-15.77v-1.97h0Zm-7.89-3.08v-9.61c0-.61.5-1.11,1.11-1.11h29.33c.61,0,1.11.5,1.11,1.11v9.61c0,.61-.5,1.11-1.11,1.11h-29.33c-.61,0-1.11-.5-1.11-1.11h0Zm-1.97-9.98v10.35c0,1.36,1.36,2.71,2.71,2.71h5.18v1.97h-12.82c-.82,0-1.16.89-1.73,1.84-.22.37-.46.74-.71,1.14l-3.47,5.64v2.59c0,2,2.06,4.39,3.94,4.44v19.84h-2.22c-1.36,0-2.71,1.36-2.71,2.71,0,1.64-.33,3.2.99,3.2h57.18c1.31,0,.99-1.56.99-3.2,0-1.36-1.36-2.71-2.71-2.71h-2.22v-19.84c1.88-.04,3.94-2.44,3.94-4.44,0-3.11.27-2.21-1.28-4.75l-2.85-4.54c-.62-1.01-.96-1.92-1.78-1.92h-12.82v-1.97h5.18c1.36,0,2.71-1.36,2.71-2.71v-10.35c0-1.36-1.36-2.71-2.71-2.71h-30.07c-1.36,0-2.71,1.36-2.71,2.71Z"/>
      <path class="cls-1" d="m38.2,18.48v7.89c0,1.32,1.97,1.32,1.97,0v-2.96h1.97c0,2.1-.39,3.94.99,3.94.6,0,.99-.39.99-.99v-7.89c0-1.32-1.97-1.32-1.97,0v2.96h-1.97c0-2.1.39-3.94-.99-3.94-.6,0-.99.39-.99.99Z"/>
      <path class="cls-1" d="m31.3,20.21c0,1.31.33,2.17,1.48,2.83.96.55,2.46.19,2.46,1.36,0,.81-1.55,1.73-1.96-.01-.36-1.52-1.98-1.27-1.98.26s1.3,2.71,3.2,2.71c2.67,0,3.9-4.02,1.23-5.54-.64-.36-.62-.26-1.46-.38-1.53-.22-1.03-1.96-.01-1.96,1.35,0,.53,1.97,1.97,1.97,1.79,0,1.27-3.94-2.22-3.94-1.36,0-2.71,1.36-2.71,2.71Z"/>
      <path class="cls-1" d="m47.07,24.28v-3.7c0-1.43,1.97-1.43,1.97,0v3.7c0,1.43-1.97,1.43-1.97,0h0Zm-1.97-4.07v4.44c0,1.51,1.3,2.71,3.2,2.71,1.36,0,2.71-1.36,2.71-2.71v-4.44c0-1.51-1.3-2.71-3.2-2.71-1.36,0-2.71,1.36-2.71,2.71Z"/>
      <path class="cls-1" d="m54.84,21.44h-.86v-1.97h.86c.55,0,1.11.5,1.11.99s-.56.99-1.11.99h0Zm-2.83-2.96v7.89c0,1.32,1.97,1.32,1.97,0v-2.96h1.23c1.51,0,2.71-1.3,2.71-3.2,0-1.36-1.36-2.71-2.71-2.71-1.64,0-3.2-.33-3.2.99Z"/>
      <path class="cls-1" d="m40.17,60.87c0,.81-.19,1.97.99,1.97s.99-1.16.99-1.97c0-1.32-1.97-1.32-1.97,0Z"/>
      <path class="cls-1" d="m46.09,60.87c0,.81-.19,1.97.99,1.97s.99-1.16.99-1.97c0-1.32-1.97-1.32-1.97,0Z"/>
    </g>
  </g>
</svg>