<?xml version="1.0" encoding="UTF-8"?> <svg xmlns="http://www.w3.org/2000/svg" width="161.616" height="48"><g fill="none" fill-rule="nonzero"><path fill="#2E2D62" d="M0 0h48v48H0z"></path><path fill="#FFF" d="M42.72 5.28h-5.602l-7.515 8.026V5.28H18.72v10.64c0 2.29-1.697 3.61-3.933 3.61-2.236 0-3.906-1.32-3.906-3.61V5.28H5.28V16c0 4.795 3.88 7.542 8.243 8H5.279v18.72h5.603v-6.922h2.451l5.172 6.95h24.216v-3.772h-6.573V27.825h6.573v-4.93l-8.027-8.215 8.027-8.242V5.279ZM24 18.29v8.673c-1.185-2.02-3.933-2.936-8-2.963 3.636-.377 6.976-2.316 8-5.71m-13.118 9.508H16c2.101 0 2.963.808 2.963 2.101s-.862 2.128-2.963 2.128h-5.118v-4.229Zm19.69 11.151H24v2.613l-4.606-6.06c3.529-.647 5.333-2.478 5.333-5.63 0-.781-.107-1.481-.323-2.101h6.168v11.178ZM37.118 24h-7.515v-8.027L37.118 24Z"></path><g fill="#2E2D62"><path d="M154.99 36.983h1.428v-3.852c0-.43.053-.808.161-1.131.108-.323.243-.566.431-.781.189-.216.404-.35.674-.458.242-.108.538-.135.808-.135.215 0 .43.027.646.108.216.08.377.189.539.323.161.162.296.35.377.593.108.242.135.539.135.889v4.417h1.427v-4.821c0-.485-.08-.916-.215-1.293a2.342 2.342 0 0 0-.593-.89 2.162 2.162 0 0 0-.862-.51 3.256 3.256 0 0 0-1.023-.163c-.566 0-1.078.135-1.536.378-.43.242-.754.565-.943.97h-.026v-1.159h-1.428m-9.428 5.306c.216.485.485.89.835 1.24s.781.619 1.266.834c.485.216.997.297 1.563.297.565 0 1.077-.108 1.562-.297.485-.215.916-.484 1.266-.835.35-.35.646-.78.835-1.239.215-.484.296-.996.296-1.535 0-.539-.108-1.05-.296-1.535a4.014 4.014 0 0 0-.835-1.24 3.706 3.706 0 0 0-1.266-.834c-.485-.216-.997-.297-1.562-.297-.566 0-1.078.108-1.563.297-.485.215-.916.484-1.266.835-.35.35-.646.78-.835 1.239-.215.485-.296.996-.296 1.535a3.33 3.33 0 0 0 .296 1.535m1.374-2.585c.108-.324.27-.593.485-.809.215-.215.458-.404.781-.538.296-.135.646-.189 1.024-.189.377 0 .727.054 1.023.189.296.134.566.323.781.538.216.216.377.512.485.809.108.323.162.673.162 1.05s-.054.727-.162 1.05c-.108.324-.27.593-.485.809a2.372 2.372 0 0 1-.78.538c-.297.135-.647.189-1.024.189-.378 0-.728-.054-1.024-.189-.296-.134-.566-.296-.781-.538-.216-.216-.377-.512-.485-.808a3.303 3.303 0 0 1-.162-1.05c0-.378.054-.728.162-1.051m-5.037-4.66a.975.975 0 0 0 .727.296.995.995 0 0 0 .728-.296.975.975 0 0 0 .296-.728.995.995 0 0 0-.296-.727.975.975 0 0 0-.728-.296.995.995 0 0 0-.727.296.975.975 0 0 0-.296.727c0 .297.107.54.296.728m.027 9.454h1.428v-7.488h-1.428v7.488Zm-1.94-7.488h-2.047v-2.101h-1.427v2.1h-1.643v1.24h1.643v3.906c0 .296 0 .62.027.916.027.296.107.565.242.808.135.242.35.43.674.592.296.162.727.216 1.266.216.134 0 .35-.027.62-.054.268-.027.484-.108.646-.189v-1.293c-.135.081-.324.135-.485.162-.189.027-.35.054-.512.054-.27 0-.485-.054-.62-.162a1.193 1.193 0 0 1-.323-.404c-.08-.161-.108-.35-.108-.565 0-.216-.027-.405-.027-.62v-3.394h2.048m-7.354 2.667v.485c0 .242-.027.511-.108.754-.08.27-.188.485-.35.7-.161.216-.377.377-.673.512-.27.135-.593.188-.997.188-.485 0-.889-.107-1.185-.296-.296-.188-.431-.512-.431-.943 0-.296.08-.538.27-.727.188-.188.43-.323.7-.43.296-.109.62-.19.97-.216.35-.027.7-.054 1.023-.054m-3.152-2.047c.135-.108.27-.189.404-.297.135-.107.297-.188.458-.269.162-.08.35-.135.566-.189.215-.053.431-.08.727-.08.297 0 .566.054.781.134.216.081.404.216.566.35.135.162.27.324.323.512.081.189.108.377.108.566v.323h-1.05c-.566 0-1.105.054-1.59.135-.511.08-.942.242-1.32.43-.377.216-.673.459-.888.809-.216.323-.324.727-.324 1.212 0 .377.081.7.216.97s.323.512.565.7c.243.189.512.323.836.431.323.108.646.135.996.135.566 0 1.078-.108 1.509-.297.43-.188.808-.538 1.13-1.023h.028c0 .377.027.754.054 1.131h1.266c-.027-.188-.027-.404-.054-.62 0-.215-.027-.457-.027-.727v-3.825a2.27 2.27 0 0 0-.189-.942 2.014 2.014 0 0 0-.565-.808c-.243-.243-.566-.404-.97-.566a4.372 4.372 0 0 0-1.4-.216c-.54 0-1.051.081-1.59.27a3.881 3.881 0 0 0-1.4.835m-5.792 6.6h1.562l2.936-7.49h-1.508l-2.155 5.738-2.236-5.737h-1.643m-8.538 5.28c.215.484.484.888.835 1.238.35.35.78.62 1.266.835.485.216.996.297 1.562.297.566 0 1.077-.108 1.562-.297.485-.215.916-.484 1.266-.835.35-.35.647-.78.835-1.239.216-.484.297-.996.297-1.535 0-.539-.108-1.05-.297-1.535a4.014 4.014 0 0 0-.835-1.24 3.706 3.706 0 0 0-1.266-.834c-.485-.216-.996-.297-1.562-.297-.566 0-1.077.108-1.562.297-.485.215-.916.484-1.266.835-.35.35-.647.78-.835 1.239-.216.485-.297.996-.297 1.535 0 .539.108 1.05.297 1.535m1.4-2.585c.108-.324.27-.593.485-.809.216-.215.458-.404.781-.538.297-.135.647-.189 1.024-.189s.727.054 1.023.189c.297.134.566.323.782.538.215.216.377.512.484.809.108.323.162.673.162 1.05s-.054.727-.162 1.05c-.107.324-.269.593-.484.809a2.372 2.372 0 0 1-.782.538c-.296.135-.646.189-1.023.189-.377 0-.727-.054-1.024-.189-.296-.134-.565-.296-.78-.538-.216-.216-.378-.512-.486-.808a3.303 3.303 0 0 1-.161-1.05 2.273 2.273 0 0 1 .161-1.051m-10.1 4.794h1.427v-3.852c0-.43.054-.808.162-1.131.107-.323.242-.566.43-.781.19-.216.405-.35.674-.458.242-.108.539-.135.808-.135.215 0 .431.027.646.108.216.08.378.189.54.323.16.162.295.35.376.593.108.242.135.539.135.889v4.417h1.428v-4.821c0-.485-.081-.916-.216-1.293a2.342 2.342 0 0 0-.593-.89 2.162 2.162 0 0 0-.861-.51 3.256 3.256 0 0 0-1.024-.163c-.566 0-1.077.135-1.535.378-.431.242-.755.565-.943.97h-.027v-1.159h-1.428m-8.78 7.515h1.427v-3.852c0-.43.054-.808.161-1.131.108-.323.243-.566.431-.781.189-.216.404-.35.674-.458.242-.108.538-.135.808-.135.215 0 .43.027.646.108.216.08.377.189.539.323.162.162.296.35.377.593.108.242.135.539.135.889v4.417h1.427v-4.821c0-.485-.08-.916-.215-1.293a2.342 2.342 0 0 0-.593-.89 2.162 2.162 0 0 0-.862-.51 3.256 3.256 0 0 0-1.023-.163c-.566 0-1.078.135-1.536.378-.43.242-.754.565-.942.97h-.027v-1.159h-1.428m-4.013 7.515h1.508V25.805H88.97v11.178Zm-10.856-1.347c-.296-.134-.565-.296-.78-.538-.216-.216-.378-.512-.486-.808a3.186 3.186 0 0 1-.161-1.05c0-.378.054-.728.161-1.051.108-.324.27-.593.485-.809.216-.215.458-.404.781-.538.297-.135.647-.189 1.024-.189s.727.054 1.024.189c.296.134.565.323.78.538.216.216.378.512.486.809.107.323.161.673.161 1.05s-.054.727-.161 1.05c-.108.324-.27.593-.485.809a2.372 2.372 0 0 1-.781.538c-.297.135-.647.189-1.024.189s-.727-.054-1.024-.189m4.903-10.585h-1.428v5.521h-.027c-.242-.377-.62-.7-1.077-.915-.485-.216-.97-.35-1.509-.35-.565 0-1.104.107-1.562.296a3.755 3.755 0 0 0-1.212.835 3.65 3.65 0 0 0-.754 1.239c-.189.485-.27.996-.27 1.562 0 .566.081 1.077.27 1.535.188.485.43.89.754 1.24.323.35.727.646 1.212.834.458.189.997.297 1.562.297.512 0 .997-.108 1.482-.323a2.608 2.608 0 0 0 1.131-.943h.027v1.077h1.428m-16.297.027h1.428v-3.852c0-.43.054-.808.162-1.131.107-.323.242-.566.43-.781.19-.216.405-.35.674-.458.243-.108.539-.135.808-.135.216 0 .431.027.647.108.215.08.377.189.538.323.162.162.297.35.377.593.108.242.135.539.135.889v4.417h1.428v-4.821c0-.485-.081-.916-.216-1.293a2.342 2.342 0 0 0-.592-.89 2.162 2.162 0 0 0-.862-.51 3.256 3.256 0 0 0-1.024-.163c-.566 0-1.077.135-1.535.378-.431.242-.754.565-.943.97h-.027v-1.159h-1.428m-3.393 3.906v.485c0 .242-.027.511-.108.754-.081.27-.189.485-.35.7-.162.216-.377.377-.674.512-.27.135-.592.188-.996.188-.485 0-.89-.107-1.186-.296-.296-.188-.43-.512-.43-.943 0-.296.08-.538.269-.727.188-.188.43-.323.7-.43.296-.109.62-.19.97-.216.35-.027.7-.054 1.023-.054M59.448 31.3c.134-.108.27-.189.404-.297.135-.107.296-.188.458-.269.161-.08.35-.135.565-.189.216-.053.431-.08.728-.08.296 0 .565.054.78.134.216.081.405.216.566.35.135.162.27.324.324.512.08.189.107.377.107.566v.323h-1.05c-.566 0-1.104.054-1.59.135-.511.08-.942.242-1.32.43-.376.216-.673.459-.888.809-.216.323-.323.727-.323 1.212 0 .377.08.7.215.97s.323.512.566.7c.242.189.512.323.835.431.323.108.646.135.997.135.565 0 1.077-.108 1.508-.297.43-.188.808-.538 1.131-1.023h.027c0 .377.027.754.054 1.131h1.266c-.027-.188-.027-.404-.054-.62 0-.215-.027-.457-.027-.727v-3.825a2.27 2.27 0 0 0-.188-.942 2.014 2.014 0 0 0-.566-.808c-.242-.243-.566-.404-.97-.566a4.372 4.372 0 0 0-1.4-.216c-.539 0-1.05.081-1.59.27a3.881 3.881 0 0 0-1.4.835M138.236 22.168h1.427v-3.852c0-.43.054-.808.162-1.13.108-.324.242-.566.43-.782.19-.215.405-.35.674-.458.243-.108.539-.135.808-.135.216 0 .431.027.647.108.215.081.377.189.539.323.161.162.296.35.377.593.107.242.134.539.134.889v4.417h1.428V17.32c0-.485-.08-.916-.216-1.293a2.342 2.342 0 0 0-.592-.889 2.162 2.162 0 0 0-.862-.512 3.256 3.256 0 0 0-1.024-.161c-.565 0-1.077.134-1.535.377-.431.242-.754.565-.943.97h-.027v-5.603h-1.427m-1.185 5.495a3.483 3.483 0 0 0-1.293-.89 4.465 4.465 0 0 0-1.563-.295c-.592 0-1.131.107-1.589.296a3.53 3.53 0 0 0-1.239.808c-.35.35-.62.754-.808 1.239a4.388 4.388 0 0 0-.296 1.59c0 .565.107 1.104.296 1.588.188.485.458.89.808 1.24.35.35.754.619 1.24.808.484.188.996.296 1.588.296.539 0 1.078-.081 1.563-.27a3.483 3.483 0 0 0 1.293-.888l-.997-1.024c-.243.27-.512.485-.781.62a2.39 2.39 0 0 1-1.024.215c-.377 0-.7-.054-.996-.189a2.56 2.56 0 0 1-.755-.538 2.487 2.487 0 0 1-.485-.808 2.975 2.975 0 0 1-.161-.997c0-.35.054-.673.161-.997a3.23 3.23 0 0 1 .431-.862c.189-.242.431-.43.728-.592a2.39 2.39 0 0 1 1.023-.216c.404 0 .754.081 1.024.216.296.135.566.35.835.62m-10.963 5.494h1.428v-3.744c0-.808.188-1.427.565-1.804.377-.378.89-.593 1.59-.593.107 0 .242 0 .35.027.107.027.242.054.35.08l.054-1.535a2.295 2.295 0 0 0-.62-.107 2.11 2.11 0 0 0-.7.107c-.243.081-.458.162-.647.27a1.998 1.998 0 0 0-.538.43 1.78 1.78 0 0 0-.378.54h-.026V14.68h-1.428m-3.394 3.879v.485c0 .242-.027.512-.108.754-.08.27-.188.485-.35.7-.162.216-.377.377-.673.512-.27.135-.593.189-.997.189-.485 0-.889-.108-1.185-.297-.296-.188-.431-.511-.431-.942 0-.297.08-.54.27-.728.188-.188.43-.323.7-.43.296-.108.62-.19.97-.216.35-.027.7-.054 1.023-.054m-3.152-2.047c.135-.108.27-.189.404-.296.135-.108.297-.189.458-.27.162-.08.35-.134.566-.188.215-.054.43-.081.727-.081.296 0 .566.054.781.135.216.08.404.215.566.35.135.161.27.323.323.511.081.189.108.378.108.566v.323h-1.05c-.566 0-1.105.054-1.59.135-.512.08-.943.242-1.32.431a2.586 2.586 0 0 0-.889.808c-.215.323-.323.727-.323 1.212 0 .377.081.7.216.97.134.27.323.512.565.7.243.189.512.323.835.431.324.108.647.135.997.135.566 0 1.077-.108 1.508-.296.431-.189.809-.54 1.132-1.024h.027c0 .377.027.754.054 1.131h1.266c-.027-.188-.027-.404-.054-.62 0-.215-.027-.457-.027-.726v-3.825a2.27 2.27 0 0 0-.189-.943 2.014 2.014 0 0 0-.565-.808c-.243-.243-.566-.404-.97-.566a4.372 4.372 0 0 0-1.4-.215c-.54 0-1.051.08-1.59.269a3.881 3.881 0 0 0-1.4.835m-7.731 2.236c0-.243.054-.512.161-.754.108-.27.27-.485.458-.7a2.08 2.08 0 0 1 .727-.513 2.27 2.27 0 0 1 .943-.188c.35 0 .674.054.943.161.27.108.485.27.673.458.189.189.324.431.404.674.081.27.135.565.162.862m1.508 1.131v-.512c0-.485-.053-.97-.188-1.427a3.762 3.762 0 0 0-.647-1.266 3.46 3.46 0 0 0-1.13-.916c-.459-.243-1.024-.35-1.67-.35a4 4 0 0 0-1.536.296 3.254 3.254 0 0 0-1.212.835c-.35.35-.62.781-.808 1.239a4.244 4.244 0 0 0-.297 1.562c0 .566.081 1.078.27 1.563.188.484.43.888.754 1.239.323.35.727.62 1.212.835a4.388 4.388 0 0 0 1.59.296c1.427 0 2.531-.512 3.312-1.535l-1.077-.808c-.27.35-.566.62-.889.808-.323.215-.7.296-1.158.296-.324 0-.647-.054-.943-.162a2.91 2.91 0 0 1-.808-.43c-.243-.19-.404-.432-.566-.674a1.969 1.969 0 0 1-.215-.889m-2.99-3.205a2.348 2.348 0 0 0-1.105-.943 3.793 3.793 0 0 0-1.454-.296c-.35 0-.7.053-1.024.134-.35.108-.646.243-.915.431-.27.189-.485.431-.647.728-.162.296-.242.619-.242 1.023 0 .35.053.647.188.889s.296.43.512.593c.215.161.458.296.727.377.27.107.566.188.862.242.162.027.35.08.539.108.215.054.404.108.592.188.189.081.35.189.485.324a.711.711 0 0 1 .189.511.814.814 0 0 1-.135.431 1.275 1.275 0 0 1-.835.458c-.188.027-.377.054-.539.054-.404 0-.754-.08-1.05-.27a4.392 4.392 0 0 1-.781-.619l-1.078.89c.377.51.782.861 1.266 1.05.458.188 1.024.296 1.643.296.378 0 .728-.054 1.105-.135.35-.08.673-.215.97-.404.296-.188.511-.43.7-.727.188-.296.27-.646.27-1.077 0-.35-.055-.647-.162-.89a1.771 1.771 0 0 0-.458-.619 2.516 2.516 0 0 0-.7-.404c-.27-.108-.566-.188-.863-.27-.161-.026-.35-.08-.565-.107-.216-.054-.431-.108-.62-.189a2.049 2.049 0 0 1-.512-.323.752.752 0 0 1-.215-.539c0-.269.135-.484.377-.62.242-.134.539-.215.889-.215s.673.081.916.216c.242.135.458.323.62.539m-11.718 1.239c0-.243.054-.512.162-.754.108-.27.27-.485.458-.7a2.08 2.08 0 0 1 .727-.513 2.27 2.27 0 0 1 .943-.188c.35 0 .673.054.942.161.27.108.485.27.674.458.188.189.323.431.404.674.08.27.135.565.162.862m1.535 1.131v-.512c0-.485-.054-.97-.189-1.427a3.762 3.762 0 0 0-.646-1.266 3.46 3.46 0 0 0-1.131-.916c-.458-.243-1.024-.35-1.67-.35a4 4 0 0 0-1.536.296 3.254 3.254 0 0 0-1.212.835c-.35.35-.62.781-.808 1.239a4.244 4.244 0 0 0-.296 1.562c0 .566.08 1.078.269 1.563.189.484.431.888.754 1.239.323.35.728.62 1.212.835a4.388 4.388 0 0 0 1.59.296c1.427 0 2.532-.512 3.313-1.535l-1.078-.808c-.27.35-.565.62-.889.808-.323.215-.7.296-1.158.296-.323 0-.646-.054-.943-.162a2.91 2.91 0 0 1-.808-.43 2.221 2.221 0 0 1-.565-.674 1.969 1.969 0 0 1-.216-.889m-8.512-6.626h1.994c.296 0 .592.027.889.08.296.054.538.135.78.27.216.135.405.296.54.539.134.242.215.538.215.915 0 .378-.08.7-.216.916a1.297 1.297 0 0 1-.538.539c-.216.135-.485.216-.781.27a4.96 4.96 0 0 1-.89.08h-1.993m-1.535 6.25h1.508v-4.93h1.697l2.829 4.93h1.885l-3.178-5.092c.43-.053.808-.161 1.131-.35.35-.188.62-.404.862-.673.242-.27.431-.566.539-.889.134-.323.188-.673.188-1.024 0-.35-.054-.7-.161-1.077a2.46 2.46 0 0 0-.566-.997c-.27-.296-.646-.538-1.104-.754-.458-.188-1.05-.296-1.778-.296h-3.933M70.034 22.168h1.508v-5.575h.135l5.198 5.575h2.21l-5.765-6.006 5.387-5.172h-2.1l-4.93 4.821h-.135V10.99h-1.508m-11.313 0v7.084c0 .647.107 1.24.323 1.778.215.539.538.996.916 1.374.377.377.835.7 1.373.888a4.527 4.527 0 0 0 1.697.324 4.33 4.33 0 0 0 1.697-.324 4.033 4.033 0 0 0 1.374-.888c.377-.378.7-.862.916-1.374a4.745 4.745 0 0 0 .323-1.778V10.99h-1.508v6.842c0 .35-.054.7-.135 1.077-.108.377-.242.727-.485 1.024-.215.323-.512.565-.862.78-.35.19-.808.297-1.32.297-.538 0-.97-.108-1.32-.296a2.407 2.407 0 0 1-.862-.781 3.573 3.573 0 0 1-.484-1.024 3.811 3.811 0 0 1-.135-1.077V10.99"></path></g></g></svg> 