<?xml version="1.0" encoding="UTF-8"?>
<svg width="334px" height="71.2770397px" viewBox="0 0 334 71.2770397" version="1.1" xmlns="http://www.w3.org/2000/svg" xmlns:xlink="http://www.w3.org/1999/xlink">
    <title>Logos / co-founded-by-eu-h</title>
    <g id="Logos-/-co-founded-by-eu-h" stroke="none" stroke-width="1" fill="none" fill-rule="evenodd">
        <polygon id="Fill-1" fill="#FFFFFE" points="0 71.2770397 104.965338 71.2770397 104.965338 0 0 0"></polygon>
        <polygon id="Fill-2" fill="#194789" points="2.0185505 69.2406952 102.946787 69.2406952 102.946787 1.95484801 2.0185505 1.95484801"></polygon>
        <polyline id="Fill-3" fill="#F7EB31" points="50.332087 16.6153184 52.4616721 15.0611911 54.5919688 16.6153184 53.7809187 14.101739 55.9443123 12.5476117 53.2777046 12.5476117 52.4616721 10.0037826 51.6456396 12.5504588 48.9808113 12.5476117 51.1424255 14.101739 50.332087 16.6153184"></polyline>
        <polyline id="Fill-4" fill="#F7EB31" points="39.310844 19.5762387 41.440429 18.0221114 43.5689464 19.5762387 42.7596756 17.0626594 44.9216457 15.5085321 42.255038 15.5085321 41.4393614 12.9618559 40.6233289 15.5113791 37.9581447 15.5085321 40.1197589 17.0626594 39.310844 19.5762387"></polyline>
        <polyline id="Fill-5" fill="#F7EB31" points="33.3761916 21.0442431 32.5601591 23.5937663 29.8953308 23.5905634 32.056945 25.1450466 31.2466066 27.658626 33.3761916 26.1044987 35.5057767 27.658626 34.6954382 25.1450466 36.8570524 23.5905634 34.1922241 23.5905634 33.3761916 21.0442431"></polyline>
        <polyline id="Fill-6" fill="#F7EB31" points="30.4181183 37.1118624 32.5466357 38.6656338 31.7373649 36.1527662 33.8989791 34.598283 31.2341508 34.598283 30.4181183 32.0516068 29.6020858 34.6039771 26.935834 34.598283 29.0988717 36.1527662 28.2885333 38.6656338 30.4181183 37.1118624"></polyline>
        <polyline id="Fill-7" fill="#F7EB31" points="34.1922241 45.6387436 33.3761916 43.0920674 32.5601591 45.6415906 29.8953308 45.6387436 32.056945 47.192515 31.2466066 49.7064503 33.3761916 48.1494759 35.5057767 49.7064503 34.6954382 47.192515 36.8570524 45.6387436 34.1922241 45.6387436"></polyline>
        <polyline id="Fill-8" fill="#F7EB31" points="42.2717643 53.7179279 41.4557318 51.1744546 40.6411229 53.7211308 37.974871 53.7179279 40.1364852 55.2724111 39.3275704 57.7859905 41.4571554 56.2318632 43.5853169 57.7859905 42.776402 55.2724111 44.9380162 53.7179279 42.2717643 53.7179279"></polyline>
        <polyline id="Fill-9" fill="#F7EB31" points="53.2791281 56.6461073 52.4630956 54.0994311 51.6484866 56.6489544 48.9822348 56.6461073 51.143849 58.2002346 50.3349341 60.713814 52.4645191 59.1593308 54.5930365 60.713814 53.7823422 58.2002346 55.9453799 56.6461073 53.2791281 56.6461073"></polyline>
        <polyline id="Fill-10" fill="#F7EB31" points="64.2864918 53.7179279 63.4718828 51.1744546 62.6544268 53.7211308 59.9913779 53.7179279 62.1512127 55.2724111 61.3422978 57.7859905 63.4718828 56.2318632 65.6014678 57.7859905 64.7897059 55.2724111 66.9527436 53.7179279 64.2864918 53.7179279"></polyline>
        <polyline id="Fill-11" fill="#F7EB31" points="72.3688791 45.6387436 71.551423 43.0920674 70.733967 45.6415906 68.0709181 45.6387436 70.2336 47.192515 69.4221939 49.7064503 71.551423 48.1494759 73.6810081 49.7064503 72.8692461 47.192515 75.0322838 45.6387436 72.3688791 45.6387436"></polyline>
        <polyline id="Fill-12" fill="#F7EB31" points="77.9604632 34.5676774 75.2942114 34.5676774 74.4767554 32.0210012 73.6621464 34.5705244 70.9955387 34.5676774 73.1589323 36.1218047 72.3493057 38.6350282 74.4767554 37.0780538 76.6059845 38.6350282 75.7974255 36.1218047 77.9604632 34.5676774"></polyline>
        <polyline id="Fill-13" fill="#F7EB31" points="69.421838 27.6248174 71.5510672 26.071046 73.6810081 27.6248174 72.8692461 25.1115939 75.0322838 23.5603136 72.3685232 23.5603136 71.5510672 21.0136374 70.733967 23.5631607 68.0705622 23.5603136 70.2332441 25.1115939 69.421838 27.6248174"></polyline>
        <polyline id="Fill-14" fill="#F7EB31" points="63.5028444 12.9647029 62.6882354 15.5142261 60.0216277 15.5085321 62.1818184 17.0655064 61.3729035 19.5790858 63.5056914 18.0221114 65.6320735 19.5790858 64.8235145 17.0655064 66.9861963 15.5085321 64.3170975 15.5085321 63.5028444 12.9647029"></polyline>
        <path d="M128.081158,21.4310845 L131.322511,22.4592214 C130.825703,24.2663793 129.998994,25.6084022 128.843096,26.485646 C127.687199,27.3632457 126.220974,27.8016897 124.44371,27.8016897 C122.245084,27.8016897 120.437926,27.0504273 119.022236,25.5486144 C117.606546,24.0460896 116.898701,21.992307 116.898701,19.3869107 C116.898701,16.6309771 117.610461,14.4903598 119.033624,12.9657705 C120.456788,11.4408254 122.328004,10.6781749 124.647273,10.6781749 C126.672941,10.6781749 128.318174,11.2771207 129.582971,12.4743005 C130.336012,13.1825014 130.900438,14.1988942 131.277315,15.5241908 L127.967632,16.3145999 C127.771898,15.4562177 127.363704,14.7786225 126.742338,14.2814583 C126.121327,13.7846501 125.36615,13.5362459 124.477874,13.5362459 C123.250089,13.5362459 122.254693,13.9764693 121.490263,14.8576278 C120.725833,15.7384304 120.343618,17.1658645 120.343618,19.1385065 C120.343618,21.2321477 120.720139,22.7229284 121.473181,23.6112045 C122.225866,24.4998364 123.204892,24.9439745 124.409901,24.9439745 C125.298177,24.9439745 126.062963,24.6617618 126.702835,24.0966246 C127.342707,23.5321991 127.802148,22.6435672 128.081158,21.4310845" id="Fill-15" fill="#194789"></path>
        <path d="M136.687756,21.521478 C136.687756,22.7115402 136.970325,23.6225926 137.53475,24.255347 C138.099887,24.8877455 138.795988,25.2041227 139.624476,25.2041227 C140.452609,25.2041227 141.147286,24.8877455 141.708509,24.255347 C142.269375,23.6225926 142.549809,22.7037108 142.549809,21.4994134 C142.549809,20.3246541 142.269375,19.4210751 141.708509,18.7883207 C141.147286,18.1559223 140.452609,17.8395451 139.624476,17.8395451 C138.795988,17.8395451 138.099887,18.1559223 137.53475,18.7883207 C136.970325,19.4210751 136.687756,20.3317717 136.687756,21.521478 Z M133.435014,21.3524351 C133.435014,20.2983189 133.694451,19.2776555 134.214391,18.2915125 C134.73362,17.3050135 135.469579,16.5516159 136.42227,16.0323872 C137.37496,15.5124467 138.438329,15.2530103 139.613088,15.2530103 C141.428076,15.2530103 142.914942,15.8423474 144.074754,17.0206655 C145.23421,18.1989837 145.814295,19.6883409 145.814295,21.4876694 C145.814295,23.3026566 145.228516,24.8069608 144.057672,26.0002259 C142.886827,27.1938469 141.413129,27.7903015 139.635865,27.7903015 C138.536552,27.7903015 137.487774,27.5418974 136.490243,27.0450891 C135.492356,26.547925 134.73362,25.8194389 134.214391,24.8592751 C133.694451,23.8994671 133.435014,22.7304018 133.435014,21.3524351 L133.435014,21.3524351 Z" id="Fill-16" fill="#194789"></path>
        <polygon id="Fill-17" fill="#194789" points="147.93783 23.1026522 154.172489 23.1026522 154.172489 19.9289157 147.93783 19.9289157"></polygon>
        <path d="M154.612712,15.5241908 L156.375029,15.5241908 L156.375029,14.6206118 C156.375029,13.6116925 156.482149,12.8582948 156.696745,12.3614866 C156.91134,11.8643224 157.306723,11.4600429 157.882892,11.1472245 C158.458706,10.834762 159.187192,10.6781749 160.06835,10.6781749 C160.971929,10.6781749 161.856646,10.8137651 162.722502,11.0849455 L162.293311,13.2988741 C161.788673,13.1785867 161.303253,13.1180871 160.836695,13.1180871 C160.377254,13.1180871 160.047709,13.2255628 159.848061,13.4401584 C159.648412,13.6547539 159.54841,14.0668628 159.54841,14.6771967 L159.54841,15.5241908 L161.921061,15.5241908 L161.921061,18.020332 L159.54841,18.020332 L159.54841,27.519477 L156.375029,27.519477 L156.375029,18.020332 L154.612712,18.020332 L154.612712,15.5241908" id="Fill-18" fill="#194789"></path>
        <path d="M171.600637,27.519477 L171.600637,25.7233514 C171.163616,26.3635792 170.589582,26.867861 169.878178,27.2372642 C169.166419,27.6059558 168.415512,27.7903015 167.624747,27.7903015 C166.818679,27.7903015 166.095887,27.6134292 165.456015,27.2593288 C164.815787,26.9055842 164.352788,26.4084201 164.067016,25.7685481 C163.780533,25.1286761 163.637469,24.2439588 163.637469,23.1143962 L163.637469,15.5241908 L166.811562,15.5241908 L166.811562,21.0360579 C166.811562,22.7229284 166.869926,23.7560476 166.986655,24.1364831 C167.103027,24.5169187 167.315843,24.817993 167.624747,25.0400621 C167.933295,25.262487 168.325119,25.3731656 168.799506,25.3731656 C169.341511,25.3731656 169.826932,25.2244078 170.256479,24.9268923 C170.685314,24.6300885 170.979626,24.2606852 171.137281,23.8201059 C171.295648,23.3798826 171.374653,22.3012107 171.374653,20.5840905 L171.374653,15.5241908 L174.548745,15.5241908 L174.548745,27.519477 L171.600637,27.519477" id="Fill-19" fill="#194789"></path>
        <path d="M188.74586,27.519477 L185.572124,27.519477 L185.572124,21.3976318 C185.572124,20.102585 185.504507,19.264488 185.368916,18.8844083 C185.233326,18.5043286 185.013036,18.2085925 184.708403,17.9975557 C184.403058,17.7868749 184.036146,17.6811785 183.606955,17.6811785 C183.057121,17.6811785 182.563871,17.8320716 182.127563,18.1331459 C181.690542,18.4342203 181.390891,18.8335175 181.229322,19.3306816 C181.067397,19.8274899 180.986612,20.7460158 180.986612,22.0866152 L180.986612,27.519477 L177.81252,27.519477 L177.81252,15.5241908 L180.760628,15.5241908 L180.760628,17.2861519 C181.806915,15.9306056 183.125094,15.2530103 184.713742,15.2530103 C185.414113,15.2530103 186.053985,15.3789918 186.634069,15.6313106 C187.213797,15.8836294 187.652241,16.2057007 187.949757,16.5968126 C188.247273,16.9886364 188.454395,17.4331303 188.571123,17.9299386 C188.687496,18.4271027 188.74586,19.1385065 188.74586,20.0645059 L188.74586,27.519477" id="Fill-20" fill="#194789"></path>
        <path d="M194.495811,21.2620416 C194.495811,22.5421414 194.672327,23.4684966 195.026428,24.0403956 C195.538183,24.8688838 196.253502,25.2827721 197.172383,25.2827721 C197.902649,25.2827721 198.524015,24.972089 199.036126,24.3510787 C199.548237,23.7297125 199.804115,22.8019337 199.804115,21.5666747 C199.804115,20.1890638 199.555711,19.1968708 199.058902,18.5908074 C198.561738,17.984744 197.925069,17.6811785 197.149963,17.6811785 C196.396921,17.6811785 195.766302,17.9808294 195.25775,18.5790634 C194.749909,19.1780092 194.495811,20.0723352 194.495811,21.2620416 Z M202.966463,27.519477 L200.01871,27.519477 L200.01871,25.75716 C199.52902,26.4425845 198.951427,26.9529162 198.284864,27.2877992 C197.618657,27.623038 196.9464,27.7903015 196.268804,27.7903015 C194.890838,27.7903015 193.71074,27.235129 192.7278,26.124428 C191.745216,25.0140828 191.253746,23.4642261 191.253746,21.4762812 C191.253746,19.4431397 191.732048,17.8979094 192.688653,16.8398786 C193.644546,15.7818478 194.853114,15.2530103 196.314001,15.2530103 C197.654245,15.2530103 198.814057,15.8103182 199.792727,16.924578 L199.792727,10.9607435 L202.966463,10.9607435 L202.966463,27.519477 L202.966463,27.519477 Z" id="Fill-21" fill="#194789"></path>
        <path d="M213.22292,20.493697 C213.200144,19.5751711 212.963128,18.876579 212.511517,18.3986323 C212.059549,17.9206857 211.509715,17.6811785 210.862013,17.6811785 C210.169471,17.6811785 209.596861,17.9338532 209.145249,18.438135 C208.693282,18.9427726 208.471213,19.6281972 208.479042,20.493697 L213.22292,20.493697 Z M213.042133,23.7015979 L216.204838,24.2322148 C215.798067,25.3920272 215.15606,26.2749651 214.279172,26.8813844 C213.401572,27.4874478 212.304039,27.7903015 210.986571,27.7903015 C208.900404,27.7903015 207.356597,27.1087916 206.355507,25.7461277 C205.564742,24.6542883 205.169359,23.2763215 205.169359,21.6118715 C205.169359,19.6239266 205.6893,18.0673082 206.728469,16.9416602 C207.767638,15.8160122 209.081191,15.2530103 210.670194,15.2530103 C212.454932,15.2530103 213.862792,15.8423474 214.894488,17.0206655 C215.925828,18.1989837 216.419077,20.0043622 216.373881,22.4364451 L208.422457,22.4364451 C208.445233,23.3781032 208.701111,24.1105039 209.190446,24.6332914 C209.680136,25.1567906 210.290115,25.4183623 211.02038,25.4183623 C211.517544,25.4183623 211.935347,25.2827721 212.274145,25.0119475 C212.612942,24.7407671 212.86882,24.3041025 213.042133,23.7015979 L213.042133,23.7015979 Z" id="Fill-22" fill="#194789"></path>
        <path d="M221.490721,21.2620416 C221.490721,22.5421414 221.667237,23.4684966 222.021338,24.0403956 C222.533449,24.8688838 223.248767,25.2827721 224.167649,25.2827721 C224.897559,25.2827721 225.519281,24.972089 226.031036,24.3510787 C226.543147,23.7297125 226.799025,22.8019337 226.799025,21.5666747 C226.799025,20.1890638 226.550977,19.1968708 226.053812,18.5908074 C225.557004,17.984744 224.920335,17.6811785 224.144873,17.6811785 C223.391831,17.6811785 222.761568,17.9808294 222.253016,18.5790634 C221.744819,19.1780092 221.490721,20.0723352 221.490721,21.2620416 Z M229.961729,27.519477 L227.013976,27.519477 L227.013976,25.75716 C226.524286,26.4425845 225.946693,26.9529162 225.28013,27.2877992 C224.613923,27.623038 223.941666,27.7903015 223.26407,27.7903015 C221.886104,27.7903015 220.70565,27.235129 219.72271,26.124428 C218.740482,25.0140828 218.249011,23.4642261 218.249011,21.4762812 C218.249011,19.4431397 218.727314,17.8979094 219.683563,16.8398786 C220.639812,15.7818478 221.848024,15.2530103 223.309267,15.2530103 C224.649155,15.2530103 225.808967,15.8103182 226.787993,16.924578 L226.787993,10.9607435 L229.961729,10.9607435 L229.961729,27.519477 L229.961729,27.519477 Z" id="Fill-23" fill="#194789"></path>
        <path d="M242.533185,21.2620416 C242.533185,22.5044181 242.728919,23.4232999 243.120742,24.0179751 C243.669865,24.8614104 244.400486,25.2827721 245.311895,25.2827721 C246.012266,25.2827721 246.608721,24.983833 247.10197,24.3848873 C247.59522,23.7862973 247.841844,22.8432157 247.841844,21.5556425 C247.841844,20.1851492 247.59344,19.1968708 247.096276,18.5908074 C246.599468,17.984744 245.963155,17.6811785 245.187337,17.6811785 C244.426821,17.6811785 243.794423,17.9769147 243.289785,18.5680311 C242.785504,19.1591476 242.533185,20.0573883 242.533185,21.2620416 Z M239.382225,27.519477 L239.382225,10.9607435 L242.555961,10.9607435 L242.555961,16.924578 C243.534631,15.8103182 244.694087,15.2530103 246.034687,15.2530103 C247.495217,15.2530103 248.704141,15.7818478 249.66039,16.8398786 C250.61664,17.8979094 251.094942,19.4171604 251.094942,21.3976318 C251.094942,23.4457203 250.607387,25.0233357 249.63192,26.1297662 C248.656809,27.2372642 247.472797,27.7903015 246.079883,27.7903015 C245.394459,27.7903015 244.718999,27.6191233 244.052436,27.276411 C243.386229,26.9340546 242.811483,26.4276376 242.329977,25.75716 L242.329977,27.519477 L239.382225,27.519477 L239.382225,27.519477 Z" id="Fill-24" fill="#194789"></path>
        <path d="M252.145144,15.5241908 L255.522087,15.5241908 L258.391547,24.0403956 L261.192677,15.5241908 L264.479227,15.5241908 L260.243901,27.0675096 L259.486945,29.1568801 C259.208291,29.8576076 258.942805,30.3921391 258.690842,30.7611865 C258.438523,31.129878 258.148481,31.429173 257.820715,31.6587155 C257.493306,31.8886139 257.090094,32.0672656 256.612503,32.1953823 C256.134201,32.323499 255.593619,32.3875574 254.991471,32.3875574 C254.381493,32.3875574 253.782903,32.323499 253.195701,32.1953823 L252.913132,29.7106292 C253.410296,29.8081403 253.857993,29.8576076 254.256935,29.8576076 C254.995385,29.8576076 255.540949,29.6405209 255.89505,29.2081268 C256.248794,28.7750211 256.519975,28.2234073 256.708235,27.5532855 L252.145144,15.5241908" id="Fill-25" fill="#194789"></path>
        <path d="M122.964317,43.2824631 L122.964317,45.812413 L120.795585,45.812413 L120.795585,50.6466848 C120.795585,51.6257103 120.816226,52.1961857 120.857864,52.358111 C120.899146,52.5200364 120.993455,52.6534913 121.140077,52.7588317 C121.287055,52.864528 121.465707,52.9171983 121.676744,52.9171983 C121.970345,52.9171983 122.395621,52.8154166 122.952573,52.6122092 L123.223754,55.0745419 C122.486015,55.3909191 121.650053,55.5489297 120.71658,55.5489297 C120.144325,55.5489297 119.628299,55.4528422 119.169214,55.2606671 C118.709774,55.0688478 118.372755,54.8204437 118.15816,54.5154547 C117.943564,54.2104656 117.794806,53.7980009 117.711886,53.2787722 C117.644269,52.9097248 117.610461,52.1641565 117.610461,51.0420673 L117.610461,45.812413 L116.153489,45.812413 L116.153489,43.2824631 L117.610461,43.2824631 L117.610461,40.8994916 L120.795585,39.047137 L120.795585,43.2824631 L122.964317,43.2824631" id="Fill-26" fill="#194789"></path>
        <path d="M128.329562,38.7193717 L128.329562,44.8070524 C129.353428,43.6102285 130.576943,43.0112827 132.000107,43.0112827 C132.730372,43.0112827 133.389817,43.1468729 133.977019,43.4180533 C134.564221,43.6892338 135.00658,44.0355049 135.304095,44.4572225 C135.601255,44.8789401 135.804818,45.3458545 135.913717,45.8576097 C136.022972,46.3700767 136.077422,47.1640446 136.077422,48.2409371 L136.077422,55.2777493 L132.903685,55.2777493 L132.903685,48.9413086 C132.903685,47.6836292 132.843186,46.8853907 132.723254,46.546949 C132.602611,46.2077955 132.389795,45.9387503 132.085162,45.7391017 C131.779817,45.539809 131.397602,45.4398068 130.938517,45.4398068 C130.411103,45.4398068 129.94063,45.5679235 129.526386,45.824157 C129.112497,46.0796787 128.809288,46.4658084 128.617113,46.9818341 C128.425293,47.497504 128.329562,48.2597987 128.329562,49.2687181 L128.329562,55.2777493 L125.155469,55.2777493 L125.155469,38.7193717 L128.329562,38.7193717" id="Fill-27" fill="#194789"></path>
        <path d="M146.423917,48.2523252 C146.401141,47.3337993 146.164125,46.6352072 145.712513,46.1569047 C145.260546,45.678958 144.710711,45.4398068 144.06301,45.4398068 C143.370468,45.4398068 142.797857,45.6924815 142.346246,46.1967632 C141.894278,46.7014008 141.672209,47.3864695 141.680038,48.2523252 L146.423917,48.2523252 Z M146.24313,51.4602262 L149.405834,51.990843 C148.999063,53.1506554 148.357056,54.0335934 147.479812,54.6396567 C146.602569,55.2457201 145.505035,55.5489297 144.187212,55.5489297 C142.1014,55.5489297 140.557593,54.8674198 139.556503,53.5047559 C138.765738,52.4125606 138.370356,51.0345939 138.370356,49.3704997 C138.370356,47.3825549 138.890296,45.8259364 139.929465,44.6999326 C140.968635,43.5742846 142.282187,43.0112827 143.871191,43.0112827 C145.655572,43.0112827 147.063433,43.6009756 148.095484,44.7789379 C149.126824,45.9576119 149.620074,47.7629904 149.574877,50.1950733 L141.623098,50.1950733 C141.64623,51.1363755 141.902107,51.8687762 142.391442,52.3919196 C142.881133,52.915063 143.490755,53.1769906 144.221376,53.1769906 C144.718541,53.1769906 145.135988,53.0414003 145.475141,52.7702199 C145.813939,52.4993953 146.069461,52.0627307 146.24313,51.4602262 L146.24313,51.4602262 Z" id="Fill-28" fill="#194789"></path>
        <polyline id="Fill-29" fill="#194789" points="158.611022 55.2777493 158.611022 38.7193717 170.888877 38.7193717 170.888877 41.520502 161.954158 41.520502 161.954158 45.1914026 170.267511 45.1914026 170.267511 47.9811448 161.954158 47.9811448 161.954158 52.4876513 171.204898 52.4876513 171.204898 55.2777493 158.611022 55.2777493"></polyline>
        <path d="M181.912967,55.2777493 L181.912967,53.4816237 C181.476303,54.1218516 180.901912,54.6264892 180.190509,54.9955366 C179.478749,55.3642281 178.727842,55.5489297 177.937077,55.5489297 C177.131365,55.5489297 176.408218,55.3720575 175.768702,55.017957 C175.128474,54.6642124 174.665474,54.1670483 174.379347,53.5268204 C174.093219,52.8869485 173.9498,52.0022312 173.9498,50.8726685 L173.9498,43.2824631 L177.123892,43.2824631 L177.123892,48.7943302 C177.123892,50.4815566 177.182256,51.5146758 177.298985,51.8947555 C177.415713,52.2755469 177.628174,52.5762654 177.937077,52.7983344 C178.245981,53.0207593 178.637449,53.1317938 179.111837,53.1317938 C179.654198,53.1317938 180.139618,52.983036 180.569165,52.6855205 C180.998,52.3883608 181.291957,52.0193134 181.449967,51.5787342 C181.608334,51.1381549 181.687339,50.0594831 181.687339,48.3427187 L181.687339,43.2824631 L184.861076,43.2824631 L184.861076,55.2777493 L181.912967,55.2777493" id="Fill-30" fill="#194789"></path>
        <path d="M191.186128,55.2777493 L188.012392,55.2777493 L188.012392,43.2824631 L190.960145,43.2824631 L190.960145,44.9878394 C191.464426,44.1821274 191.918529,43.6515105 192.321029,43.395277 C192.723885,43.1397553 193.181191,43.0112827 193.693658,43.0112827 C194.41645,43.0112827 195.112907,43.2109313 195.783384,43.6102285 L194.800444,46.3771943 C194.265557,46.0312791 193.768748,45.8576097 193.309663,45.8576097 C192.865169,45.8576097 192.488649,45.9800324 192.180101,46.2248777 C191.871197,46.469723 191.628487,46.9120817 191.451615,47.5519537 C191.274387,48.1921815 191.186128,49.5327809 191.186128,51.5730401 L191.186128,55.2777493" id="Fill-31" fill="#194789"></path>
        <path d="M199.66888,49.2801062 C199.66888,50.4698125 199.951449,51.3812208 200.515874,52.0136193 C201.081012,52.6463737 201.777113,52.962395 202.605601,52.962395 C203.433733,52.962395 204.128411,52.6463737 204.689277,52.0136193 C205.250144,51.3812208 205.530933,50.4623391 205.530933,49.2576858 C205.530933,48.0829264 205.250144,47.1793475 204.689277,46.546949 C204.128411,45.9145505 203.433733,45.5981733 202.605601,45.5981733 C201.777113,45.5981733 201.081012,45.9145505 200.515874,46.546949 C199.951449,47.1793475 199.66888,48.0903999 199.66888,49.2801062 Z M196.415783,49.1107074 C196.415783,48.0565913 196.675575,47.0362838 197.195515,46.0497848 C197.714744,45.0632859 198.450704,44.3102441 199.403394,43.7910154 C200.356084,43.271075 201.419453,43.0112827 202.594213,43.0112827 C204.408844,43.0112827 205.896066,43.6009756 207.055878,44.7789379 C208.214979,45.9576119 208.795063,47.4466132 208.795063,49.2462976 C208.795063,51.060929 208.209641,52.5652331 207.038796,53.7588541 C205.867952,54.9521192 204.393897,55.5489297 202.616989,55.5489297 C201.51732,55.5489297 200.468898,55.3005256 199.471011,54.8033615 C198.473124,54.3065532 197.714744,53.5780671 197.195515,52.6179033 C196.675575,51.6577395 196.415783,50.4886742 196.415783,49.1107074 L196.415783,49.1107074 Z" id="Fill-32" fill="#194789"></path>
        <path d="M214.329351,49.0768988 C214.329351,50.4246158 214.596617,51.4203676 215.131504,52.0645101 C215.666036,52.7079409 216.317296,53.0300122 217.085284,53.0300122 C217.823735,53.0300122 218.436916,52.7346319 218.926607,52.1435155 C219.415941,51.552399 219.660787,50.5829823 219.660787,49.2349095 C219.660787,47.9772301 219.408468,47.0437572 218.904186,46.4337792 C218.399549,45.824157 217.774624,45.5188121 217.029055,45.5188121 C216.253237,45.5188121 215.609807,45.818107 215.09734,46.4170528 C214.585584,47.0152869 214.329351,47.9024953 214.329351,49.0768988 Z M211.189779,43.2824631 L214.148564,43.2824631 L214.148564,45.0444242 C214.532914,44.4422755 215.052143,43.9529408 215.707673,43.576064 C216.362492,43.199899 217.089199,43.0112827 217.887438,43.0112827 C219.280351,43.0112827 220.46294,43.5575582 221.434136,44.6493976 C222.405688,45.7408811 222.891464,47.2622675 222.891464,49.212489 C222.891464,51.2153808 222.401773,52.7723552 221.422748,53.8827003 C220.444078,54.9934013 219.257931,55.5489297 217.865017,55.5489297 C217.202013,55.5489297 216.601644,55.4172542 216.063197,55.1535472 C215.525107,54.8898403 214.958191,54.4382287 214.363515,53.7980009 L214.363515,59.8408407 L211.189779,59.8408407 L211.189779,43.2824631 L211.189779,43.2824631 Z" id="Fill-33" fill="#194789"></path>
        <path d="M232.536876,48.2523252 C232.514455,47.3337993 232.277439,46.6352072 231.825472,46.1569047 C231.37386,45.678958 230.824026,45.4398068 230.175969,45.4398068 C229.483427,45.4398068 228.911172,45.6924815 228.459204,46.1967632 C228.007593,46.7014008 227.785524,47.3864695 227.792997,48.2523252 L232.536876,48.2523252 Z M232.356089,51.4602262 L235.518793,51.990843 C235.112378,53.1506554 234.470371,54.0335934 233.593127,54.6396567 C232.715527,55.2457201 231.617994,55.5489297 230.300527,55.5489297 C228.214715,55.5489297 226.670908,54.8674198 225.669462,53.5047559 C224.879053,52.4125606 224.483315,51.0345939 224.483315,49.3704997 C224.483315,47.3825549 225.003255,45.8259364 226.042424,44.6999326 C227.081593,43.5742846 228.395502,43.0112827 229.984149,43.0112827 C231.768887,43.0112827 233.176748,43.6009756 234.208799,44.7789379 C235.240139,45.9576119 235.733388,47.7629904 235.688192,50.1950733 L227.736412,50.1950733 C227.759189,51.1363755 228.015066,51.8687762 228.504401,52.3919196 C228.994092,52.915063 229.60407,53.1769906 230.334691,53.1769906 C230.831499,53.1769906 231.249302,53.0414003 231.5881,52.7702199 C231.926898,52.4993953 232.182775,52.0627307 232.356089,51.4602262 L232.356089,51.4602262 Z" id="Fill-34" fill="#194789"></path>
        <path d="M244.893736,49.5174781 C244.486965,49.6527124 243.843534,49.8149936 242.962376,50.0028982 C242.081573,50.1911586 241.505048,50.3758603 241.234223,50.5566472 C240.820335,50.8502481 240.613213,51.2228543 240.613213,51.6744658 C240.613213,52.1189598 240.778341,52.5029541 241.110021,52.8268048 C241.441345,53.1506554 241.862707,53.3125808 242.375174,53.3125808 C242.947073,53.3125808 243.492993,53.1243203 244.012933,52.7477995 C244.396572,52.4616721 244.64889,52.1114863 244.769534,51.697598 C244.852454,51.4264176 244.893736,50.9107477 244.893736,50.1498766 L244.893736,49.5174781 Z M240.646666,46.9419756 L237.766886,46.422391 C238.090381,45.2629345 238.647689,44.4045523 239.438454,43.8472444 C240.229219,43.2902925 241.403622,43.0112827 242.962376,43.0112827 C244.378066,43.0112827 245.432182,43.1789021 246.12508,43.513785 C246.817622,43.8493797 247.305178,44.2746561 247.587746,44.790326 C247.869959,45.3063518 248.011243,46.2529922 248.011243,47.6313149 L247.977435,51.3360241 C247.977435,52.3901402 248.028325,53.1673818 248.130107,53.6684606 C248.231533,54.1691836 248.421573,54.7058504 248.700227,55.2777493 L245.560299,55.2777493 C245.477379,55.0670684 245.375597,54.75425 245.25531,54.3400059 C245.202639,54.1521013 245.164916,54.0278993 245.142496,53.9673997 C244.600491,54.4948136 244.020407,54.8898403 243.402599,55.1535472 C242.785504,55.4172542 242.12677,55.5489297 241.426398,55.5489297 C240.191139,55.5489297 239.218164,55.2136909 238.50676,54.5439251 C237.795,53.8734474 237.439121,53.0264534 237.439121,52.0022312 C237.439121,51.3246359 237.601046,50.7199961 237.924897,50.1893792 C238.248391,49.6584065 238.702138,49.2516358 239.285781,48.969779 C239.869424,48.6872104 240.710724,48.4405856 241.810393,48.2295489 C243.2937,47.9512509 244.321837,47.6914586 244.893736,47.4505279 L244.893736,47.1341507 C244.893736,46.5238168 244.743199,46.0892875 244.441768,45.8294952 C244.14105,45.5697029 243.572354,45.4398068 242.736392,45.4398068 C242.171967,45.4398068 241.731032,45.5508413 241.41501,45.7729103 C241.098633,45.9953352 240.842755,46.3850236 240.646666,46.9419756 L240.646666,46.9419756 Z" id="Fill-35" fill="#194789"></path>
        <path d="M262.051059,55.2777493 L258.877323,55.2777493 L258.877323,49.1559041 C258.877323,47.8608574 258.80935,47.0231162 258.674115,46.6426806 C258.538525,46.262601 258.318235,45.9668648 258.013246,45.7558281 C257.708257,45.5451472 257.341345,45.4398068 256.911798,45.4398068 C256.36232,45.4398068 255.86907,45.5903439 255.432406,45.8914183 C254.995741,46.1928485 254.69609,46.5921457 254.534521,47.088954 C254.372596,47.5861181 254.291455,48.504644 254.291455,49.8448875 L254.291455,55.2777493 L251.117363,55.2777493 L251.117363,43.2824631 L254.065471,43.2824631 L254.065471,45.0444242 C255.112114,43.6892338 256.429937,43.0112827 258.01894,43.0112827 C258.719312,43.0112827 259.358828,43.13762 259.938912,43.3899388 C260.518641,43.6422576 260.95744,43.963973 261.254956,44.3554409 C261.552472,44.7469087 261.759594,45.1914026 261.876322,45.6885668 C261.992695,46.185375 262.051059,46.8967789 262.051059,47.8231341 L262.051059,55.2777493" id="Fill-36" fill="#194789"></path>
        <path d="M271.697182,38.7193717 L275.040674,38.7193717 L275.040674,47.6875439 C275.040674,49.1107074 275.0816,50.033148 275.164876,50.4545097 C275.307584,51.1324608 275.648516,51.6766011 276.186963,52.0869306 C276.725053,52.4976159 277.461368,52.7026027 278.395197,52.7026027 C279.343973,52.7026027 280.058935,52.5086482 280.541153,52.1207392 C281.022658,51.733186 281.313056,51.2566629 281.410923,50.6918816 C281.50879,50.1271003 281.557545,49.1897127 281.557545,47.8793631 L281.557545,38.7193717 L284.901037,38.7193717 L284.901037,47.4163634 C284.901037,49.4043083 284.810643,50.808966 284.629856,51.6292691 C284.449069,52.4502839 284.115966,53.143182 283.630546,53.7076074 C283.144414,54.2727446 282.495289,54.7225767 281.682103,55.0574597 C280.868918,55.3923426 279.806617,55.559962 278.496623,55.559962 C276.915093,55.559962 275.716134,55.3773957 274.899033,55.0122629 C274.082289,54.6474861 273.436367,54.1730983 272.962335,53.5890994 C272.487592,53.0054565 272.175129,52.3940549 272.024592,51.753827 C271.806082,50.8050514 271.697182,49.4043083 271.697182,47.5519537 L271.697182,38.7193717" id="Fill-37" fill="#194789"></path>
        <path d="M299.313103,55.2777493 L296.139366,55.2777493 L296.139366,49.1559041 C296.139366,47.8608574 296.071749,47.0231162 295.936159,46.6426806 C295.800569,46.262601 295.580279,45.9668648 295.27529,45.7558281 C294.970301,45.5451472 294.603389,45.4398068 294.174198,45.4398068 C293.624363,45.4398068 293.131114,45.5903439 292.694449,45.8914183 C292.257785,46.1928485 291.958134,46.5921457 291.796565,47.088954 C291.634639,47.5861181 291.553499,48.504644 291.553499,49.8448875 L291.553499,55.2777493 L288.379406,55.2777493 L288.379406,43.2824631 L291.327871,43.2824631 L291.327871,45.0444242 C292.374158,43.6892338 293.691981,43.0112827 295.280984,43.0112827 C295.981356,43.0112827 296.621228,43.13762 297.200956,43.3899388 C297.780684,43.6422576 298.219484,43.963973 298.517,44.3554409 C298.814515,44.7469087 299.021637,45.1914026 299.138366,45.6885668 C299.254739,46.185375 299.313103,46.8967789 299.313103,47.8231341 L299.313103,55.2777493" id="Fill-38" fill="#194789"></path>
        <path d="M302.532392,55.2777493 L305.706128,55.2777493 L305.706128,43.2824631 L302.532392,43.2824631 L302.532392,55.2777493 Z M302.532392,41.6560922 L305.706128,41.6560922 L305.706128,38.7193717 L302.532392,38.7193717 L302.532392,41.6560922 Z" id="Fill-39" fill="#194789"></path>
        <path d="M311.478144,49.2801062 C311.478144,50.4698125 311.760712,51.3812208 312.324782,52.0136193 C312.889919,52.6463737 313.58602,52.962395 314.414864,52.962395 C315.242997,52.962395 315.937674,52.6463737 316.498541,52.0136193 C317.059407,51.3812208 317.339841,50.4623391 317.339841,49.2576858 C317.339841,48.0829264 317.059407,47.1793475 316.498541,46.546949 C315.937674,45.9145505 315.242997,45.5981733 314.414864,45.5981733 C313.58602,45.5981733 312.889919,45.9145505 312.324782,46.546949 C311.760712,47.1793475 311.478144,48.0903999 311.478144,49.2801062 Z M308.225046,49.1107074 C308.225046,48.0565913 308.484482,47.0362838 309.004423,46.0497848 C309.523652,45.0632859 310.259967,44.3102441 311.212657,43.7910154 C312.164992,43.271075 313.228717,43.0112827 314.40312,43.0112827 C316.218107,43.0112827 317.705329,43.6009756 318.864786,44.7789379 C320.024242,45.9576119 320.604327,47.4466132 320.604327,49.2462976 C320.604327,51.060929 320.018904,52.5652331 318.84806,53.7588541 C317.677215,54.9521192 316.203161,55.5489297 314.426252,55.5489297 C313.326584,55.5489297 312.278162,55.3005256 311.280275,54.8033615 C310.282387,54.3065532 309.523652,53.5780671 309.004423,52.6179033 C308.484482,51.6577395 308.225046,50.4886742 308.225046,49.1107074 L308.225046,49.1107074 Z" id="Fill-40" fill="#194789"></path>
        <path d="M334,55.2777493 L330.826264,55.2777493 L330.826264,49.1559041 C330.826264,47.8608574 330.75829,47.0231162 330.623056,46.6426806 C330.487466,46.262601 330.267176,45.9668648 329.962187,45.7558281 C329.657198,45.5451472 329.28993,45.4398068 328.860739,45.4398068 C328.310905,45.4398068 327.818011,45.5903439 327.381347,45.8914183 C326.944682,46.1928485 326.645031,46.5921457 326.483462,47.088954 C326.321536,47.5861181 326.240396,48.504644 326.240396,49.8448875 L326.240396,55.2777493 L323.066303,55.2777493 L323.066303,43.2824631 L326.014412,43.2824631 L326.014412,45.0444242 C327.061055,43.6892338 328.378878,43.0112827 329.967881,43.0112827 C330.667897,43.0112827 331.307769,43.13762 331.887853,43.3899388 C332.467581,43.6422576 332.906381,43.963973 333.203541,44.3554409 C333.501056,44.7469087 333.708179,45.1914026 333.825263,45.6885668 C333.941636,46.185375 334,46.8967789 334,47.8231341 L334,55.2777493" id="Fill-41" fill="#194789"></path>
    </g>
</svg>