<?xml version="1.0" encoding="UTF-8"?>
<svg id="Layer_2" data-name="Layer 2" xmlns="http://www.w3.org/2000/svg" viewBox="0 0 88.23 88.23">
  <defs>
    <style>
      .cls-1 {
        fill: #fff;
      }

      .cls-2 {
        fill: #b6b199;
        fill-rule: evenodd;
      }
    </style>
  </defs>
  <g id="Layer_1-2" data-name="Layer 1">
    <circle class="cls-1" cx="44.11" cy="44.11" r="44.11" transform="translate(-18.27 44.11) rotate(-45)"/>
    <g>
      <path class="cls-2" d="m48.94,73.25l-.25.15.25-.15h0Zm-9.67,0l.27.07-.27-.07h0Zm9.67,0c.19-.17.05-.05.3-.21.86-.56,1.54-1.05,2.28-1.79,1.94-1.95,4.86-5.94,5.44-8.43.22.1,5.15,1.16,7.76,2.42-.39.58-.93.97-1.49,1.44-.57.48-1,.87-1.62,1.31-2.38,1.71-5.05,3.18-7.85,4.11-1.13.38-3.45,1.16-4.82,1.16h0Zm-9.67,0c-1.34,0-3.66-.78-4.73-1.13-1.59-.53-2.8-1.11-4.18-1.8-1.34-.66-2.52-1.47-3.69-2.29-.74-.52-2.73-2.12-3.18-2.8,1.98-.95,5.55-1.9,7.76-2.42.44,1.87,2.87,5.59,4.24,7.22l2.36,2.22c.24.18.43.33.65.49l.76.51h0Zm5.73-.64c2.64-.22,4.73-2.01,6.34-3.85,2.28-2.62,2.55-3.88,3.85-6.34-.76,0-1.8-.26-2.45-.35-2.34-.31-5.39-.55-7.73-.55v11.07h0Zm-11.96-10.18c.73,1.37.65,1.58,1.73,3.36,1.78,2.95,4.7,6.5,8.46,6.82v-11.07c-1.91,0-3.55.13-5.34.26l-4.85.63h0Zm-3.44-17.44h13.62v14.64l-5.62.36c-.95.11-1.71.17-2.63.3-.86.12-1.7.36-2.69.36l-1.03-3.55c-.32-1.09-.6-2.51-.82-3.76-.71-3.91-.46-5.53-.82-8.35h0Zm36.66,18.84c.46-.69.94-1.17,1.46-1.85,2.62-3.45,4.2-7,5.27-11.28.68-2.73.51-4.52.79-5.7h-13.36c0,3.25-.3,5.97-.82,8.86l-1.33,5.54c-.16.54-.48,1.2-.52,1.77,2.26.05,7.86,2.52,8.53,2.67h0Zm-10.31-3.18c-.92,0-5.86-.87-8.01-.9-1.15-.01-1.89-.12-2.93-.12v-14.64h13.62c-.24,1.03-.15,3.06-.27,4.31-.14,1.31-.32,2.69-.54,4.04-.22,1.34-.52,2.55-.84,3.74l-1.02,3.56h0Zm-41.49-15.65c.24.53-.18,8.87,6.11,17.06.47.62.96,1.12,1.4,1.78l2-.8c1.25-.49,5.5-1.85,6.53-1.87-.04-.52-.36-1.27-.53-1.76-1.35-4.01-2.15-10.09-2.15-14.4h-13.36Zm-1.78-.89c0,8.83,3.33,16.37,9.13,22.18,4.33,4.33,8.55,6.57,14.37,8.29,4.8,1.41,10.97,1.23,15.78.03,1-.25,1.93-.52,2.83-.86.83-.31,1.9-.74,2.69-1.13,4.43-2.18,8.55-5.31,11.51-9.24.31-.41.52-.7.82-1.09.27-.36.48-.64.73-1.05.27-.45.49-.74.73-1.18,1.14-2.06,1.54-2.88,2.42-5.09,1.28-3.25,1.87-7.16,1.87-10.86,0-.59-.3-.89-.89-.89H13.56c-.59,0-.89.3-.89.89Z"/>
      <path class="cls-2" d="m60.4,40.16c-1.86,0,.12-2.09,1.61-4.62,1.48-2.5,1.23-1.44,1.95-4.54l1.05.99c-.75,2.91-1.11,2.8-2.62,5.33l-1.21,1.97c-.2.33-.37.87-.79.87h0Zm-11.2-1.15l-1.66-.76,3.44-7.51c.8.07.98.57,1.78.64-.12.51-.6,1.46-.85,1.95-.87,1.74-1.79,3.93-2.72,5.68h0Zm18.96-15.65c1.4.94-.03.73,2.59,1.48l2.38.68c.39.12.4.14.63.39-.21.88-.63.6-1.38.37-.59-.18-1.28-.32-1.91-.51-2.33-.69-2.31-.38-2.31-2.4h0Zm-11.2,2.93c.52,0,1.28-.59,1.71-.84.56-.33.98-.54,1.55-.87.57-.34,1.05-.6,1.61-.94.35-.21,1.22-.79,1.63-.79,1.63,0,.53,3.72.92,5.58.12.6,4.03,4.37,4.58,5.09.34.45,1.53,3.74,1.83,4.53.34.9.59,2.11,1.07,2.11,1.55,0,.37-1.88-.53-4.31-1.12-3.01-.53-2.08-2.18-4.05-.22-.26-.4-.4-.63-.64l-1.78-2.04c-.77-.83-.47-1.37-.47-3.22,0-2.61.73-6.42-1.97-4.77l-4.75,2.75c-.73.44-2.95,1.52-2.95,2.01,0,.29.09.38.38.38h0Zm9.16-9.04c-2,0-1.76-2.8-.13-2.8,1.92,0,1.71,2.8.13,2.8h0Zm-3.31-1.65c0,1.48.47,2.39,1.71,3.12l.32.19c-1.12.26-6.81,3.68-8.22,4.51-2.79,1.64-1.76,2.39-1.75,3.4,0,.5-1.07,2.23-1.23,2.91-.94-.08-1.34-.89-2.8-.89-1.08,0-1.42,1.05-1.78,1.78l-2.93,6.24c-.49.95-.89,2.11.18,2.88.27.2,1.15.61,1.48.69,0,.46-.02.67.17.98,1.02,1.64,2.14-.66,2.16-.68.34-.35.32-.08.64-.63l2.16-4.59c.32-.64.55-1.22.85-1.83.29-.6.63-1.19.88-1.8.28-.69.56-1.14.87-1.81l.81-1.87c.89,0,1.25.05,1.86-.31.5-.29.88-.51,1.36-.8.48-.29.92-.54,1.37-.8.46-.26,1.08-.67,1.52-.77,0,3.51.28,2.78-.56,6.19-.23.94-.31,1.01-.72,1.7-.62,1.03-3.43,5.19-3.43,6.12,0,2.23,3.02,3.8,4.76,1.2.97-1.44,3.73-5.83,4.02-7.05,2.6,1.74,1.95,8.4,5.6,8.4,1.32,0,2.42-1.08,2.42-2.55,0-.7-2.32-6.98-2.89-7.67l-2.76-3.1c-.67-.85-.71-.26-.71-1.71,1.32.31,4.02,1.27,5.22,1.27,2.32,0,3.29-3.66.37-4.57-4.36-1.36-2.42.07-6.26-3.8-.18-.18-.32-.35-.51-.5l-.6-.42c1.56-.03,2.99-1.68,2.89-3.28-.11-1.84-1.43-3.08-3.53-3.08-1.45,0-2.93,1.5-2.93,2.93Z"/>
      <path class="cls-2" d="m14.45,31.88c0-.23.19-1.06.27-1.26.1-.27.38-.72.59-.93,2.05-2.03,5.89-.89,5.89,2.2,0,2.12-2.37,5.72-3.31,7.13-.66-.48-3.44-5.32-3.44-7.13h0Zm-1.78-.51c0,2.57.85,4.2,2.01,6.14l2.11,3.49c1.2,2.07,2.18-.15,2.79-1.18,1.5-2.54,4.7-6.84,2.88-10.35-1.38-2.66-5.64-3.76-8.18-1.31-.75.72-1.62,1.81-1.62,3.22Z"/>
      <path class="cls-2" d="m41.56,40.67c0,1.37.37,1.15,2.8,1.15.91,0,1.15-1.78-.13-1.78-1.1,0-2.67-.26-2.67.64Z"/>
      <path class="cls-2" d="m27.31,40.67c0,1.37.37,1.15,2.8,1.15.91,0,1.15-1.78-.13-1.78-1.1,0-2.67-.26-2.67.64Z"/>
      <path class="cls-2" d="m34.43,40.67c0,1.37.37,1.15,2.8,1.15.91,0,1.15-1.78-.13-1.78-1.1,0-2.67-.26-2.67.64Z"/>
      <path class="cls-2" d="m20.18,40.67c0,1.37.37,1.15,2.8,1.15.52,0,1.12-.88.51-1.53-.4-.42-1.67-.25-2.68-.25-.3,0-.64.34-.64.64Z"/>
      <path class="cls-2" d="m16.49,31.76c0,1.86,2.67,1.86,2.67,0,0-.22-.28-.73-.41-.86-.2-.2-.53-.33-.88-.34-.83-.03-1.38.68-1.38,1.2Z"/>
    </g>
  </g>
</svg>