<?xml version="1.0" encoding="UTF-8"?>
<svg id="Layer_2" data-name="Layer 2" xmlns="http://www.w3.org/2000/svg" viewBox="0 0 88.23 88.23">
  <defs>
    <style>
      .cls-1 {
        fill: #fde6a4;
        fill-rule: evenodd;
      }

      .cls-2 {
        fill: #1d1d1b;
      }
    </style>
  </defs>
  <g id="Layer_1-2" data-name="Layer 1">
    <circle class="cls-2" cx="44.11" cy="44.12" r="44.11" transform="translate(-1.95 2.04) rotate(-2.6)"/>
    <g>
      <path class="cls-1" d="m26.67,73.72c-3.81,0-6.63-2.76-6.63-6.63,0-3.26,2.79-6.14,6.02-6.14,1.44,0,2.02,0,3.33.6,4.85,2.19,4.74,9.4-.14,11.57-.55.25-1.8.61-2.58.61h0Zm48.9-8.74c-.06-.88-.22-1.78-.35-2.58-.55-3.34-1.31-5.51-3.14-8.28-.26-.39-.52-.69-.79-1.05-1.7-2.28-4.6-4.77-6.9-6.49l-8.84-6.39c-2.79-1.98-6.78-3.68-11.55-3.68,0-1.3.03-2.29-.95-3.35-2.01-2.18-5.93-.68-5.93,2.12v1.23c-4.15,0-8.34,1.33-11.67,3.69-.59.42-1.16.87-1.74,1.33-.82.66-1.62,1.63-2.29,2.38-.3.34-.49.47-.77.83-.43.56-.97,1.07-1.42,1.65-1.81,2.3-2.35,2.84-3.87,5.47-2.24,3.9-2.64,6.96-2.7,10.69v4.06c0,1.24.95,2.28,1.77,2.78,1.09.65,2.47.54,4.13.54.34,1.45,1.67,3.13,2.72,3.92,1.51,1.13,3.29,1.69,5.05,1.74h.48c2.61-.07,5.1-1.27,6.52-3.41.37-.56,1.01-1.45,1.08-2.24h18.18c.67,2.87,4.03,5.65,7.62,5.65,3.22,0,5.42-1.09,7.15-3.42.32-.43,1.04-1.63,1.09-2.23,1.49,0,3.79.13,4.87-.29,1.57-.62,2.14-1.86,2.26-3.28v-1.37h0Zm-6.02-6.74c0-.57.69-.37,2.09-.37.53,0,.96,1.84.98,2.09-.99,0-3.07.34-3.07-1.72h0Zm-16.83-15.73c0-.54,1.55-.37,2.21-.37.2,0,1.69,1.16,1.96,1.35l5.77,4.3h-8.23c-.08-.98-1.72-4.52-1.72-5.28h0Zm18.18,13.39c-.82-1.23-1.43-2.27-2.49-3.41-.2-.21-.35-.34-.55-.55-.4-.4-.7-.72-1.1-1.11l-1.29-1.05c-.6-.36-10.05-.14-11.41-.14-.99,0-1.04-.24-1.3-1.03l-1.8-5.08c-.41-1.21.13-2.71,1.14-2.98v-.25c-.76-.18-2.41-1.27-5.44-1.69l-5-.28c-4.51.02-8.45.03-12.53,1.85l-2.04,1.15c-2.73,1.83-5.82,5.39-7.75,7.97-4.35,5.83-4.83,8.83-4.83,16.55,0,2.48,1.92,2.09,3.56,2.09,0-3.36,1.21-5.67,3.54-7.39,3.32-2.45,7.8-2.08,10.86.97,1.82,1.82,2.43,3.54,2.43,6.42h17.2c0-2.83.71-4.72,2.43-6.42.83-.83,1.29-1.15,2.37-1.69,1.7-.86,2.34-.86,4.18-.86,3.41,0,2.23,2.09,1.72,2.09-1.59,0-2.36-.71-4.83.33-.38.16-.73.34-1.05.55-.33.22-.49.41-.81.66-1.64,1.3-2.03,3.16-2.03,5.21,0,2.96,2.97,5.9,6.51,5.9,5.29,0,8.15-6.14,5.3-10.09-.96-1.33.27-1.7.35-1.7,1.02,0,1.32.51,2.09,2.21.51,1.12.61,2.47.61,3.81h2.95c2.89,0,1.52-4.01,1.35-6.02-1.73,0-3.01.16-4.02-.65-1.61-1.27-2.35-3.65-.67-4.9.67-.5,1.23-.47,2.36-.47h0Zm-30.47-21.87c1.79,0,1.6,1.37,1.6,2.46h-3.07c0-.62.05-1.33.24-1.72.17-.34.72-.74,1.23-.74Z"/>
      <path class="cls-1" d="m33.43,42.89c0-.62,2.54-.74,3.07-.74h8.6c.54,0,1.15.46,1.45.76.52.51.55.75.81,1.53l1.18,3.36h-15.11v-4.91h0Zm-1.97.37v4.55h-5.9c.91-1.36,2.66-2.76,4.1-3.64.59-.35,1.21-.6,1.79-.91h0Zm-8.97,5.41c0,.45.34.98.74.98h26.66c.57,0,.86-.29.86-.86,0-.8-1.43-4.5-1.76-5.48-.52-1.56-2.13-3.12-4.13-3.12-4.11,0-9.13-.38-12.7.81-.76.25-1.41.47-2.04.78-.33.16-.66.33-.98.49-2.1,1.09-3.92,2.88-5.39,4.69-.27.33-1.25,1.27-1.25,1.7Z"/>
      <path class="cls-1" d="m62.3,20.16c0-.64.3-1.82.53-2.3,2.62-5.55,10.77-3.54,10.77,2.3,0,3.08-2.67,11.62-5.65,11.62-2.93,0-5.65-8.71-5.65-11.62h0Zm5.35-7.49c-1.78.06-3.56.75-4.95,2.12-1.01.99-2.24,2.93-2.24,4.89,0,3.73,1.58,9.17,3.97,12.01,1.28,1.52,2.1,2,3.9,2,3.91,0,7.13-9.52,7.13-12.78,0-1.8.08-2.43-.78-4.14-1.28-2.57-3.84-4-6.46-4.09h-.56Z"/>
      <path class="cls-1" d="m58.12,67.33c0-3.08,4.79-3.08,4.79,0,0,2.41-3.59,3.09-4.55.86-.04-.1-.24-.74-.24-.86h0Zm-1.84-.49c0,2.1.58,3.35,2.5,4.26,2.76,1.31,5.98-.81,5.98-3.52,0-1.97-.73-3.3-2.49-4.14-2.88-1.37-5.98,1.14-5.98,3.4Z"/>
      <path class="cls-1" d="m30.85,20.04c0,.74.53,1.11.98,1.11.61,0,3.37-3.44,7.49-3.44,3.33,0,5.02.21,7.72,2.23.41.3,1.18,1.21,1.61,1.21.39,0,1.9-.52.4-2-4.3-4.25-11.77-4.48-16.55-.88-.38.29-1.67,1.31-1.67,1.77Z"/>
      <path class="cls-1" d="m14.63,23.11c0-1.99,3.56-2.62,3.56.25,0,2-3.56,2.32-3.56-.25h0Zm-1.84-.37c0,1.31.01,2.13,1.13,3.17,1.41,1.31,3.6,1.39,5.04-.06.67-.67,1.12-1.45,1.18-2.51.02-.34-.16-1.24-.28-1.54-.97-2.47-4.14-2.95-6.01-1.31-.47.41-1.07,1.42-1.07,2.24Z"/>
      <path class="cls-1" d="m22.25,67.09c0,.58.03,1.57,1.06,1.43.87-.12.71-.63.83-1.38.39-2.46,2.91-2.57,4-1.52l.46.64c.62,1.24.13,2.43-.87,2.99-.6.34-2.04.23-2.04,1.27,0,2.06,5.04.59,5.04-2.95,0-2.05-.74-3.4-2.58-4.18-.3-.13-1.33-.36-1.72-.36-2.06,0-4.18,1.96-4.18,4.04Z"/>
      <path class="cls-1" d="m67.95,21.63c-2,0-1.96-3.07,0-3.07s2.03,3.07,0,3.07h0Zm-3.44-1.47c0,1.8,1.47,3.26,3.35,3.41,2.97.24,4.68-3.69,2.65-5.84-1.32-1.4-3.9-1.32-5.1,0-.46.5-.89,1.5-.89,2.43Z"/>
      <path class="cls-1" d="m34.78,24.34c.84,0,2.15-2.21,4.79-2.21,1.5,0,2.68-.02,4.01.79.73.44,1.74,1.43,2.14,1.43.51,0,.98-.48.98-.98,0-.78-1.77-1.91-2.42-2.25-2.57-1.38-6.15-1.24-8.57.36-.61.4-1.12.71-1.58,1.25-.6.7-.08,1.63.65,1.63Z"/>
      <path class="cls-1" d="m36.74,26.3c0,.59.39.98.98.98,1.02,0,.55-.98,2.83-.98,1.47,0,1.23.98,2.46.98.43,0,.81-.64.79-.96-.05-1.09-2.89-2.83-5.67-1.46-.45.22-1.39.88-1.39,1.44Z"/>
      <path class="cls-1" d="m31.46,52.59v5.16c0,1.22,1.97,1.54,1.97-.25v-4.79c0-1.48-1.97-1.44-1.97-.12Z"/>
      <path class="cls-1" d="m70.41,64.02v1.72c0,.88,1.84,1.03,1.84-.25,0-1.2.22-2.21-1.11-2.21-.3,0-.74.44-.74.74Z"/>
      <path class="cls-1" d="m21.76,23.11c0,1.04.82.98,1.23.98.88,0,1.03-1.84-.25-1.84-.53,0-.98.38-.98.86Z"/>
      <path class="cls-1" d="m28.39,23.11c0,1.04.82.98,1.23.98.88,0,1.03-1.84-.25-1.84-.53,0-.98.38-.98.86Z"/>
      <path class="cls-1" d="m25.07,23.11c0,1.04.82.98,1.23.98.88,0,1.03-1.84-.25-1.84-.53,0-.98.38-.98.86Z"/>
      <path class="cls-1" d="m49.89,23.11c0,1.21,1.84,1.48,1.84,0,0-1.24-1.84-1.04-1.84,0Z"/>
      <path class="cls-1" d="m53.21,23.11c0,1.21,1.84,1.48,1.84,0,0-.31-.02-.36-.18-.56-.5-.62-1.66-.23-1.66.56Z"/>
      <path class="cls-1" d="m56.52,23.11c0,1.21,1.84,1.48,1.84,0,0-.31-.02-.36-.18-.56-.5-.62-1.66-.23-1.66.56Z"/>
    </g>
  </g>
</svg>