<?xml version="1.0" encoding="UTF-8"?>
<svg id="Layer_2" data-name="Layer 2" xmlns="http://www.w3.org/2000/svg" viewBox="0 0 88.23 88.23">
  <defs>
    <style>
      .cls-1 {
        fill: #fff;
      }

      .cls-2 {
        fill: #b2bdae;
        fill-rule: evenodd;
      }
    </style>
  </defs>
  <g id="Layer_1-2" data-name="Layer 1">
    <circle class="cls-1" cx="44.11" cy="44.11" r="44.11" transform="translate(-2.37 2.51) rotate(-3.17)"/>
    <g>
      <path class="cls-2" d="m22.82,69.11c0,1.39.75,1.91,2.03,1.91,1.39,0,1.73-1.93,2.15-2.98l4.19-11.2c1.8-4.97,3.78-9.98,5.58-14.95,2.46-6.78,5.25-13.78,7.67-20.5.23-.63.45-1.29.7-1.92.26-.67,2.75-7.03,2.75-7.64,0-1.39-.75-1.91-2.03-1.91-1.39,0-1.73,1.93-2.15,2.98-.49,1.24-.9,2.46-1.4,3.73-.98,2.49-1.89,4.96-2.79,7.47-1.8,4.97-3.78,9.98-5.58,14.95l-4.19,11.2c-2.12,5.35-4.17,11.44-6.29,16.86-.19.49-.63,1.45-.63,1.99Z"/>
      <path class="cls-2" d="m37.14,69.11c0,1.39.75,1.91,2.03,1.91,1.39,0,1.73-1.93,2.15-2.98l2.8-7.47c3.3-8.59,6.44-17.65,9.77-26.15l4.19-11.21c.24-.66.46-1.19.69-1.82.23-.63.45-1.29.7-1.92.26-.67,2.74-7.03,2.74-7.64,0-1.39-.75-1.91-2.03-1.91-1.39,0-1.73,1.93-2.15,2.98l-4.19,11.2c-1.8,4.97-3.78,9.98-5.58,14.95-.91,2.51-1.82,4.98-2.79,7.47-.5,1.28-.91,2.5-1.4,3.73l-5.57,14.95c-.26.67-1.35,3.37-1.35,3.9Z"/>
      <path class="cls-2" d="m58.62,51.33c-.04-.26.14-.91.5-1.29,1.18-1.25,2.96-.35,3.05,1.08.07,1-.77,1.8-1.66,1.86-.7.05-1.39-.43-1.65-.93-.03-.06-.24-.68-.24-.71h0Zm-3.58-11.1v14.8c0,.97.87,1.55,2.03,1.55,1.38,0-.21-.72,2.05-.14,3.3.85,6.66-1.81,6.66-4.87,0-1.8-.32-2.88-1.58-4.15-1.65-1.65-3.4-1.85-5.58-1.34,0-.97.18-5.82-.19-6.49-.9-1.62-3.39-.89-3.39.65Z"/>
      <path class="cls-2" d="m15.66,47.75c-.04-.26.14-.91.5-1.29,1.18-1.25,2.96-.35,3.05,1.08.07,1-.77,1.8-1.66,1.86-.99.07-1.75-.74-1.89-1.64h0Zm-3.58-.36c0,2.28,1.06,4.13,2.94,5.06,1.33.65,3.21.78,4.54.16.7-.33.92-.55,1.47-.92.53.35.72.55,1.39.88.86.42,1.44.43,2.43.43,1.4,0,2.15-2.08.99-3.14-.43-.39-.61-.37-1.32-.47-3.15-.45-.83-5-2.09-6.5-.53-.63-.98-.62-1.64-.62-.77,0-.68.55-1.31.37l-.74-.23c-3.18-.82-6.66,1.63-6.66,4.99Z"/>
    </g>
  </g>
</svg>