<?xml version="1.0" encoding="UTF-8"?>
<svg id="Layer_2" data-name="Layer 2" xmlns="http://www.w3.org/2000/svg" viewBox="0 0 88.23 88.23">
  <defs>
    <style>
      .cls-1 {
        fill: #eea7a4;
        fill-rule: evenodd;
      }

      .cls-2 {
        fill: #1d1d1b;
      }
    </style>
  </defs>
  <g id="Layer_1-2" data-name="Layer 1">
    <circle class="cls-2" cx="44.11" cy="44.11" r="44.11" transform="translate(-18.27 44.11) rotate(-45)"/>
    <g>
      <path class="cls-1" d="m26.42,59.72c-2.23-.6-.85-4.87-.51-6.03.56-1.92.5-1.67,1.37-3.3,1.24.83,2.33,6.06,2.33,7.49,0,.77-.62,1.68-1.23,1.84,0-1.35.32-3.69-.98-3.69s-.98,1.8-.98,3.69h0Zm30.59-16.09h8.48v9.34h-8.48v-9.34h0Zm-7.25,7c0-.69.36-1.35.98-1.35s.98.67.98,1.35v2.33h-1.97v-2.33h0Zm-25.92,2.33c.4,0,.76-1.44,1.16-2.41.19-.47.37-.7.65-1.07.64-.86.77-.49.77-.95v-4.91h-10.2v9.34h7.62Zm24.08-2.95c0-1.29,1.29-2.58,2.58-2.58,1.83,0,3.07,1.14,3.07,2.58v2.95h1.47v-9.58c0-.34-.21-.38-.43-.55l-3.74-2.89c-.73.39-1.57,1.13-2.26,1.67-.55.43-2.04,1.35-2.04,1.77v9.58h1.35v-2.95h0Zm-19.66-6.02c0,1.02,0,1.87.1,2.72.16,1.47-.34,1.7.41,2.41.78.74,1.74,2.98,1.82,3.83h14.01v-20.52h-16.34v11.55h0Zm-6.97-6.11c.65.43,1.36,1.43,1.84,1.91.54.55,1.56,1.43,1.94,1.99h-7.62l3.84-3.9h0Zm32.4,1.81c1.96,0,3.93.01,5.9,0,1.5,0,1.33.11,2.19.76.41.31,1.5,1.01,1.74,1.33-1.97,0-3.93,0-5.9,0-1.78,0-1.44-.17-3.46-1.7l-.47-.39h0Zm-7.13.98v-17.2h8.23v14.25h-3.69c-.69,0-.88.22-1.3.54l-3.25,2.41h0Zm17.69-16.71c.5.33,1.01.9,1.53,1.3l3.05,2.6c.5.44,1.11.88,1.45,1.38h-11.92c.19-.28.37-.46.67-.69l5.23-4.6h0Zm-14.01-5.53h.61c1.69,0,3.56,1.56,3.69,3.07h-7.86c.36-1.53,1.85-3.07,3.56-3.07h0Zm-.61-1.84c-2.05.17-4.15,2.17-4.78,4.19-.54,1.72-.26,6.4-.26,8.71l-1.94-1.5c-.66-.55-1.33-1.01-2.03-1.53-5.08-3.79-3.32-3.74-7.07-1-1.46,1.07-.55,1.95.48,1.95.32,0,1.83-1.39,2.46-1.72l6.14,4.79h-12.41c.41-.55,1.23-.59,1.23-1.47,0-.98-.77-1.4-2.13-.28-.4.33-.8.6-1.19.9-1.62,1.21-1.74,1.1-1.72,2.45.03,2.74,0,5.49,0,8.23-1.39-.93-4.2-4.79-5.04-4.79-.74,0-3.15,2.72-3.78,3.35-.64.64-1.17,1.12-1.73,1.83-.42.53-1.62,1.3-1.62,2.07v10.2c-.62,0-1.6-.1-1.6.98,0,.73.5.98,1.23.98h9.71c-.02.9-.37,1.8-.37,2.83,0,2.08,1.5,3.66,3.19,4.05,0,.82,0,1.64,0,2.46,0,.58-.04,1.42.97,1.4.79-.02.99-.61,1-1.4.01-.81,0-1.65,0-2.46,1.58-.37,3.07-2.03,3.07-3.56,0-.93-.05-2.65-.37-3.32h42.51c1.49,0,1.96-.03,1.96-1.23,0-.82-1.28-.74-1.72-.74v-2.58c0-.8-1.84-1.14-1.84.25v2.33h-4.55v-10.2c0-.84-1.33-1.49-2.25-2.18-4.65-3.5-3.1-2.86-8.56-2.86v-6.63h15.36v15.6c0,.95,1.84.93,1.84,0v-16.59c0-.63-.69-1.03-1.37-1.58-.22-.17-.3-.29-.5-.48l-1.06-.91c-.41-.33-.64-.56-1.07-.89l-4.81-4.16c-.22-.18-.37-.29-.66-.3-.63-.03-2.22,1.59-2.78,2.09l-2.71,2.32c-.42.33-.65.6-1.05.91-.52.4-.61.61-1.18.91,0-2.12.27-6.07-.45-7.78-.73-1.73-2.58-3.48-4.58-3.65,0-1.85.47-3.93-.98-3.93-.84,0-.99.61-.99,1.47,0,.82,0,1.64,0,2.46Z"/>
      <path class="cls-1" d="m65.49,67.46c-.3-.2-.54-.38-.78-.7-.91-1.21-.13-3.85.27-5.22.51-1.7,1.33-3.3,1.37-3.42,1.39.37,2.33,6.14,2.33,7.13,0,1.1-.24,1.69-1.23,2.21,0-1.81.44-3.69-.98-3.69s-.98,2.33-.98,3.69h0Zm-1.23-9.34c-1.16,0-2.76.32-3.83.47-7.08.99-13.71,3.2-20.04,6.37-.56.28-.96.5-1.44.77-.41.23-1.1.49-1.1,1.11,0,.38.47,1.47,1.7.72,2.71-1.65,7.52-3.56,10.54-4.57,2.96-.99,6.62-1.84,9.79-2.38,1.13-.19,2.49-.28,3.53-.53l-.86,3.56c-.75.06-4.29,1.67-4.94,2.06l-2.8,1.63c-1.5.95-7.66,5.81-7.71,7.26-.03.74.61.97,1.2.97.35,0,1.24-1.17,1.47-1.47,1.17-1.53,4.92-4.44,6.52-5.4.33-.2.57-.33.92-.55.96-.58,4.34-2.33,5.21-2.4,0,1.09.52,1.95,1.12,2.57l.25.24c.43.39,1.08.82,1.7.88,0,1.39-.43,3.93.98,3.93s.98-1.89.98-3.93c1.65-.14,3.07-2.01,3.07-3.81v-1.84l3.77-.16c.61-.11.97-.38.98-.94,0-1.12-1-.99-1.67-.99l-2.69.13c-.39.03-.44.11-.87.12-.01-.46-.46-2.01-.61-2.33,1.52,0,3.04,0,4.55,0,1.86,0,1.68-1.97,0-1.97l-5.41.12c-.58-2.19-3.71-2.18-4.3.37Z"/>
      <path class="cls-1" d="m15.86,69.67c-2.23-1.18-1.05-4.64-.23-7.11.13-.4.23-.76.43-1.16.18-.38.44-.72.53-1.06.86.23,1.4,2.31,1.6,3.07.51,1.97.74,2.54.74,4.67,0,.79-.7,1.32-1.23,1.6,0-2.39.36-3.69-.98-3.69-1.21,0-.86,1.69-.86,3.69h0Zm-3.19-2.33c0,1.25.09,2.13,1.07,3.1,1.09,1.08.83.7,2.12,1.32,0,.78,0,1.56,0,2.34,0,.39-.05.73.1,1.01.42.79,1.75.42,1.75-.27v-3.19c1.39-.03,3.19-1.8,3.19-3.93,0-1.75-.65-4.22-1.09-5.54-.72-2.15-1.37-3.79-3.33-3.79-2.3,0-3.81,7.22-3.81,8.97Z"/>
      <path class="cls-1" d="m50.26,29.37c0-.28.09-.37.37-.37s.37.09.37.37v2.7h-.74v-2.7h0Zm-1.97.74c0,4.36-.42,3.81,3.69,3.81,1.41,0,.98-2.28.98-4.55,0-2.76-4.67-3.74-4.67.74Z"/>
      <path class="cls-1" d="m27.65,74.58c0,.47.32.89.76.98h.37c.27-.06.57-.24.84-.61.28-.38.48-.57.86-.86l4.77-3.83c1.56-1.03.36-1.94-.22-1.94-.65,0-3.3,2.13-4.02,2.74l-.93.79c-.58.56-2.42,2.09-2.42,2.74Z"/>
      <path class="cls-1" d="m40.06,35.64v4.91c0,1.11,1.97,1.67,1.97-.61,0-1.55.32-4.61-.63-5.04-.32-.14-.5-.15-.81.02-.22.12-.53.43-.53.71Z"/>
      <path class="cls-1" d="m40.06,44.85v4.79c0,.65.58,1.06,1.16.92,1.2-.29.81-2.95.81-4.85,0-2.72-1.97-1.88-1.97-.86Z"/>
      <path class="cls-1" d="m35.51,44.73v5.04c0,.26.24.53.45.67.3.2.52.2.8.1.59-.2.72-.76.72-1.51v-3.56c0-2.37-1.97-1.56-1.97-.74Z"/>
      <path class="cls-1" d="m30.97,44.73v5.04c0,.34.53,1.02,1.25.77.59-.2.72-.76.72-1.51v-3.56c0-2.37-1.97-1.56-1.97-.74Z"/>
      <path class="cls-1" d="m30.97,35.64v5.04c0,.26.24.53.45.67.59.39,1.52.17,1.52-1.4v-3.56c0-.75-.12-1.31-.72-1.51-.28-.1-.5-.09-.8.1-.2.13-.45.4-.45.67Z"/>
      <path class="cls-1" d="m35.51,35.64v5.04c0,.83,1.97,1.63,1.97-.74v-3.56c0-1.57-.92-1.8-1.52-1.4-.2.13-.45.4-.45.67Z"/>
      <path class="cls-1" d="m18.07,47.31c0,2.48-.28,3.32,1.23,3.32,1.03,0,.74-2.35.74-3.44,0-1.32-1.97-1.36-1.97.12Z"/>
      <path class="cls-1" d="m22.62,46.94c0,2.98-.36,3.69,1.11,3.69,1.08,0,.74-2.27.74-3.69,0-.98-1.84-.98-1.84,0Z"/>
      <path class="cls-1" d="m63.28,33.67c0,1.48-.3,2.95.98,2.95s.98-1.64.98-2.83c0-1.48-1.97-1.44-1.97-.12Z"/>
      <path class="cls-1" d="m67.95,34.04c0,1.05-.21,2.58.98,2.58,1.28,0,.98-1.47.98-2.95,0-1.02-1.28-1.35-1.76-.53-.13.22-.21.58-.21.9Z"/>
      <path class="cls-1" d="m58.61,34.29c0,.95-.14,2.33.98,2.33,1.28,0,.98-1.47.98-2.95,0-1.18-1.97-1.69-1.97.61Z"/>
      <path class="cls-1" d="m62.05,46.45c0,.83-.23,2.33.98,2.33s.98-1.31.98-2.46c0-1.32-1.97-1.36-1.97.12Z"/>
      <path class="cls-1" d="m58.49,46.33c0,1.39-.25,2.46,1.11,2.46,1.14,0,1.32-3.44-.12-3.44-.59,0-.98.39-.98.98Z"/>
      <path class="cls-1" d="m50.75,44.97c1.34,0,1.03-1.84.25-1.84h-.25c-1.28,0-1.19,1.84,0,1.84Z"/>
    </g>
  </g>
</svg>