<?xml version="1.0" encoding="UTF-8"?>
<svg id="Layer_2" data-name="Layer 2" xmlns="http://www.w3.org/2000/svg" viewBox="0 0 88.23 88.23">
  <defs>
    <style>
      .cls-1 {
        fill: #1d1d1b;
        fill-rule: evenodd;
      }

      .cls-2 {
        fill: #cab693;
      }
    </style>
  </defs>
  <g id="Layer_1-2" data-name="Layer 1">
    <circle class="cls-2" cx="44.11" cy="44.11" r="44.11" transform="translate(-18.27 44.11) rotate(-45)"/>
    <g>
      <path class="cls-1" d="m52.21,66.86h-23.89c-.4,0-3.93-3.71-4.11-3.98l-1.44,1.38,3.47,3.53-2.57,2.64-9.63-9.57c.44-.65,9.63-9.69,11.17-11.24.31-.31,1.29-1.51,1.7-1.51h19.91c.32,0,1.54,1.22,1.54,1.54v3.6c0,.32-1.22,1.54-1.54,1.54h-11.43v2.06h12.2c.37,0,.87-.68,1.12-.93.73-.73.6-.84,1.31-.88,1.15-.06,3.39.18,4.37,0,.56-.1,3.95-3.74,4.41-4.2l7.51-7.51c.36-.36.68-.87,1.32-.87,4.68,0,3.66-.39,5.23,1.19.47.47.96.85,1.32,1.38-.45.67-18.02,18.09-20.45,20.52-.29.29-1.11,1.32-1.51,1.32h0Zm1.28-13.74h-3.21c0-5.23.44-4.12-1.25-5.81-.29-.29-1.05-1.25-1.44-1.25h-21.45c-.46,0-7.04,6.84-7.48,7.29-1.27,1.27-2.45,2.45-3.73,3.72l-3.69,3.76,12.36,12.43,3.79-3.73c.74-.75.43-.76,1.83-.74,7.61.08,15.39-.08,22.99,0,1.4.02,1.09,0,1.83-.74,1.54-1.56,22.49-22.33,22.96-23.02l-3.37-3.44c-.26-.26-.87-1.06-1.25-1.06h-5.91c-.45,0-6.04,5.85-6.45,6.26-.41.42-6.07,6.33-6.52,6.33Z"/>
      <path class="cls-1" d="m46.17,40.53h-2.95c0-4.2.63-8.31,3.69-11.34,2.79-2.76,5.78-4.46,10.05-4.46h2.18c0,5.03-.5,7.65-3.63,11.39-.76.91-2.73,2.39-3.86,2.95l-2.5.97c-.81.21-1.93.49-2.98.49h0Zm-20.81-15.28v-.51c4.08,0,6.78.14,10.22,2.62.88.64.73.6,1.38,1.19,1.44,1.31,2.42,2.84,3.22,4.62,1.07,2.37,1.11,4.56,1.11,7.37-3.77,0-4.97.2-8.48-1.54-1.78-.88-2.71-1.73-3.95-3.11-2.74-3.07-3.5-6.3-3.5-10.63h0Zm-1.93,2.18c0,3.2,1.79,7.59,3.82,9.67,1.26,1.29.97,1.24,3.04,2.74.74.54,1.61.97,2.47,1.38,3.73,1.81,8.53,1.37,12.76,1.37,3.21,0,6.22-1.12,8.61-2.7.91-.6,2.33-1.78,3.01-2.64.32-.4.55-.65.86-1.06,3.45-4.6,3.06-8.21,3.06-13.51-6.84,0-11.62.25-16.41,6.07-.53.64-.9,1.28-1.34,2-.58.97-.69,1.5-.92,1.91-.15.26-.09.16-.21.3-.59-2.54-3.56-5.98-5.7-7.4-4.43-2.93-7.32-2.88-13.05-2.88v4.75Z"/>
      <path class="cls-1" d="m37.95,19.47c-.28-.06-5.21-2.38-5.91-2.44l-1.67,4.24c.47.22,1.25.51,1.8.64.26-.49.76-1.72.9-2.31.68.16,1.22.45,1.85.72.62.26,1.33.7,1.87.83-.24.45-.98,1.91-1.03,2.44.85.07,1.02.49,1.93.51.69-2.96,3.9-5.41,4.5-6.29,1.51,1.01,4.16,4.29,4.62,6.29.91-.02,1.08-.44,1.93-.51-.05-.62-.76-1.94-1.03-2.44.57-.13,1.17-.55,1.78-.79.59-.23,1.3-.6,1.95-.75l.9,2.31c.61-.05,1.25-.48,1.93-.64-.6-1.13-1.21-3.12-1.8-4.24-.47.04-2.38.93-2.95,1.16l-2.83,1.28c-.11-.07-4.25-4.32-4.37-4.5-.67.45-3.89,3.78-4.37,4.5Z"/>
      <path class="cls-1" d="m51.18,48.37l1.31,1.39c1.15-.75,7.86-8.19,8.45-8.19h3.21c0-2.64.74-2.06-3.85-2.06-.6,0-7.88,8.03-9.12,8.86Z"/>
      <polygon class="cls-1" points="50.82 63.94 52.18 65.35 61.49 56.11 60.14 54.69 50.82 63.94"/>
      <path class="cls-1" d="m49.51,36.55c.06.68.5,1.19.64,1.8,1.56-.36,4.21-2.49,5.19-3.93.23-.33.4-.55.59-.82-.21-.28-.47-.4-.81-.6-.35-.2-.56-.36-.86-.55-.78,1.16-2.02,2.54-3.26,3.29-.55.33-.98.48-1.49.82Z"/>
      <path class="cls-1" d="m41.57,21.55c.62.94.91.86,1.92,2.78.2.38.31.79.49,1.18.4-.03,1.6-.48,1.93-.64-.21-.4-.33-.79-.55-1.24-.51-1.02-1.53-2.8-2.4-3.38l-1.38,1.31Z"/>
      <path class="cls-1" d="m54.9,31.54c.43.23,1.26.73,1.8.77.17-.73.62-1.2.64-2.06-.77-.02-1.1-.37-1.93-.39-.13.57-.47,1.16-.51,1.67Z"/>
      <polygon class="cls-1" points="60.97 53.79 62.32 55.21 63.8 53.79 62.38 52.45 60.97 53.79"/>
      <path class="cls-1" d="m55.8,28.72c.62.14,1.31.24,1.93.39l.13-2.18h-1.93c0,.74-.13.98-.13,1.8Z"/>
      <path class="cls-1" d="m63.28,51.48l1.35,1.42,1.35-1.28c-.14-.45-.27-.48-.57-.77-.28-.27-.43-.47-.74-.67l-1.38,1.31Z"/>
    </g>
  </g>
</svg>